<svg id="svg" version="1.1" xmlns="http://www.w3.org/2000/svg" xmlns:xlink="http://www.w3.org/1999/xlink" width="400" height="400" viewBox="0, 0, 400,400"><g id="svgg"><path id="path0" d="M314.453 72.451 C 314.453 72.553,315.000 72.919,315.668 73.264 C 316.336 73.610,316.775 73.717,316.642 73.503 C 316.510 73.289,316.613 73.043,316.872 72.957 C 317.164 72.859,317.083 72.700,316.659 72.537 C 316.250 72.380,316.071 72.430,316.214 72.661 C 316.345 72.873,316.266 73.047,316.039 73.047 C 315.811 73.047,315.625 72.871,315.625 72.656 C 315.625 72.441,315.361 72.266,315.039 72.266 C 314.717 72.266,314.453 72.349,314.453 72.451 M63.372 95.703 C 63.372 96.455,63.452 96.763,63.551 96.387 C 63.649 96.011,63.649 95.396,63.551 95.020 C 63.452 94.644,63.372 94.951,63.372 95.703 M336.328 97.253 C 336.328 98.873,336.225 99.154,335.703 98.954 C 335.257 98.783,335.117 98.905,335.214 99.378 C 335.290 99.743,335.527 99.988,335.742 99.923 C 335.976 99.852,336.220 101.450,336.349 103.906 C 336.553 107.768,336.570 107.637,336.642 101.660 C 336.684 98.169,336.631 95.313,336.523 95.313 C 336.416 95.313,336.328 96.186,336.328 97.253 M210.456 96.548 C 210.728 96.888,210.862 97.409,210.753 97.704 C 210.396 98.674,211.160 99.346,212.297 99.060 C 213.182 98.838,213.272 98.702,212.862 98.208 C 212.184 97.391,209.832 95.768,210.456 96.548 M330.375 201.992 L 330.269 306.055 329.367 308.974 C 326.279 318.962,319.429 325.918,309.204 329.450 L 306.836 330.267 201.563 330.386 C 124.185 330.473,95.668 330.387,93.945 330.060 C 81.414 327.688,71.946 318.063,69.915 305.631 C 69.681 304.202,69.514 270.165,69.475 216.406 C 69.440 168.604,69.336 127.432,69.243 124.914 L 69.074 120.335 67.738 119.509 C 67.003 119.055,66.503 118.518,66.628 118.316 C 66.753 118.115,66.648 117.998,66.395 118.057 C 66.142 118.116,65.877 117.677,65.806 117.083 C 65.734 116.482,65.839 116.102,66.042 116.227 C 66.242 116.351,66.406 116.266,66.406 116.039 C 66.406 115.483,65.338 115.508,65.152 116.068 C 65.059 116.347,64.729 116.238,64.262 115.775 C 63.600 115.118,63.548 115.112,63.779 115.723 C 63.921 116.099,63.878 116.406,63.682 116.406 C 63.486 116.406,63.418 116.802,63.530 117.285 C 63.643 117.769,63.718 118.340,63.698 118.555 C 63.266 123.102,63.166 140.310,63.129 215.820 C 63.089 299.548,63.132 305.870,63.760 308.685 C 66.915 322.838,77.687 333.525,91.677 336.383 C 95.155 337.093,98.812 337.114,201.446 337.016 L 307.617 336.914 310.547 336.019 C 327.089 330.966,336.480 318.198,336.748 300.391 C 336.959 286.432,336.565 112.114,336.328 114.258 C 336.186 115.547,336.039 116.426,336.002 116.211 C 335.965 115.996,335.236 115.812,334.381 115.802 C 333.489 115.791,333.031 115.913,333.308 116.089 C 333.635 116.297,333.540 116.405,333.008 116.428 L 332.227 116.461 333.008 116.797 C 333.676 117.084,333.690 117.137,333.105 117.160 C 332.729 117.175,332.422 117.374,332.422 117.601 C 332.422 117.829,332.248 117.907,332.036 117.776 C 331.822 117.644,331.745 117.785,331.863 118.093 C 331.980 118.399,331.810 118.751,331.484 118.876 C 330.965 119.076,330.890 117.829,330.873 108.702 C 330.862 102.982,330.770 98.218,330.667 98.115 C 330.565 98.013,330.434 144.758,330.375 201.992 M208.594 100.399 C 208.152 100.690,208.313 100.765,209.250 100.702 C 209.934 100.657,210.407 100.480,210.301 100.310 C 210.043 99.891,209.305 99.929,208.594 100.399 M206.893 101.500 C 206.292 102.163,206.319 102.269,207.313 103.155 C 207.897 103.676,208.150 103.808,207.876 103.448 C 207.448 102.888,207.497 102.776,208.217 102.667 C 209.054 102.540,209.054 102.535,208.296 101.665 C 207.563 100.824,207.510 100.818,206.893 101.500 M186.340 104.883 C 186.340 105.425,186.832 106.040,187.337 106.131 C 187.570 106.172,187.760 105.960,187.760 105.660 C 187.760 105.359,187.594 105.215,187.391 105.341 C 187.188 105.466,186.869 105.327,186.681 105.031 C 186.494 104.734,186.340 104.668,186.340 104.883 M188.082 106.496 C 187.387 107.004,187.386 107.031,188.059 107.031 C 188.635 107.031,188.679 107.138,188.295 107.600 C 187.717 108.298,188.096 109.031,188.880 108.730 C 189.326 108.559,189.465 108.889,189.504 110.212 C 189.552 111.785,189.578 111.736,189.857 109.570 C 190.215 106.781,189.467 105.484,188.082 106.496 M177.246 108.870 C 176.011 109.194,175.000 109.611,175.000 109.795 C 175.000 109.980,175.246 110.037,175.546 109.922 C 175.847 109.807,176.227 109.944,176.390 110.227 C 176.554 110.510,176.557 110.625,176.398 110.482 C 176.239 110.340,175.463 110.491,174.675 110.820 L 173.242 111.417 173.986 110.591 C 174.956 109.516,174.788 109.536,170.356 111.035 C 166.792 112.240,166.671 112.317,167.969 112.546 C 168.721 112.679,168.999 112.811,168.587 112.839 C 167.286 112.929,168.686 113.511,170.520 113.643 C 171.213 113.693,171.950 116.117,171.382 116.478 C 171.003 116.719,171.006 116.786,171.399 116.791 C 171.674 116.794,172.001 116.533,172.124 116.211 C 172.429 115.417,172.745 115.470,173.966 116.520 C 174.781 117.219,174.905 117.517,174.535 117.887 C 174.165 118.256,174.308 118.359,175.192 118.359 C 176.269 118.359,176.286 118.386,175.563 118.934 C 174.873 119.456,177.373 118.931,181.445 117.699 L 182.227 117.463 181.445 117.188 C 181.016 117.037,180.661 116.667,180.657 116.367 C 180.654 116.054,180.277 115.834,179.778 115.851 C 179.299 115.868,178.906 115.737,178.906 115.558 C 178.906 115.380,178.643 115.234,178.320 115.234 C 177.960 115.234,177.734 114.869,177.734 114.286 C 177.734 113.468,177.580 113.358,176.602 113.481 C 175.723 113.593,175.423 113.446,175.261 112.829 C 174.750 110.874,176.872 110.055,178.399 111.619 C 178.872 112.104,179.630 112.500,180.083 112.500 C 180.535 112.500,180.797 112.676,180.664 112.891 C 180.531 113.105,180.619 113.281,180.859 113.281 C 181.100 113.281,181.209 113.421,181.104 113.593 C 180.998 113.764,181.072 114.160,181.270 114.472 C 181.581 114.963,181.630 114.961,181.641 114.453 C 181.648 114.068,181.751 114.016,181.940 114.302 C 182.097 114.541,182.545 114.623,182.935 114.484 C 183.603 114.245,183.596 114.171,182.810 113.172 C 182.137 112.316,182.104 112.162,182.636 112.366 C 183.207 112.585,183.233 112.504,182.832 111.756 C 182.578 111.282,182.119 110.797,181.810 110.678 C 181.502 110.560,181.250 110.224,181.250 109.931 C 181.250 109.631,181.007 109.493,180.693 109.613 C 180.286 109.770,180.192 109.608,180.347 109.015 C 180.597 108.060,180.373 108.050,177.246 108.870 M219.922 108.564 C 220.352 108.864,220.372 108.974,219.996 108.978 C 219.715 108.982,219.582 109.141,219.700 109.332 C 219.818 109.524,219.470 109.972,218.927 110.328 C 218.383 110.684,217.649 111.582,217.295 112.324 C 216.941 113.065,216.487 113.672,216.286 113.672 C 216.085 113.672,216.119 113.912,216.362 114.205 C 216.715 114.629,216.625 114.726,215.922 114.682 C 215.436 114.651,214.926 114.787,214.787 114.985 C 214.645 115.187,213.781 114.979,212.808 114.508 C 211.858 114.048,210.873 113.672,210.619 113.672 C 210.364 113.672,210.149 113.276,210.139 112.793 C 210.127 112.152,209.981 112.309,209.600 113.375 C 209.314 114.179,208.763 115.322,208.377 115.914 C 207.875 116.687,207.843 116.855,208.267 116.508 C 208.778 116.091,208.867 116.268,208.926 117.810 L 208.993 119.596 207.524 119.383 C 206.716 119.266,206.000 119.163,205.934 119.155 C 205.868 119.147,205.905 118.992,206.017 118.810 C 206.130 118.629,205.407 118.892,204.412 119.396 C 203.416 119.900,202.361 120.313,202.067 120.313 C 201.692 120.313,201.769 120.566,202.321 121.160 C 202.902 121.783,203.001 122.140,202.694 122.510 C 202.464 122.786,202.384 123.187,202.516 123.401 C 202.907 124.032,201.379 124.655,200.792 124.103 C 200.403 123.736,200.254 123.740,200.114 124.121 C 200.015 124.390,199.378 124.589,198.698 124.563 L 197.461 124.517 198.633 124.219 L 199.805 123.921 198.512 123.874 C 197.759 123.847,197.320 123.665,197.461 123.438 C 197.594 123.223,197.512 123.047,197.279 123.047 C 196.733 123.047,197.842 120.849,198.527 120.574 C 198.803 120.463,198.677 120.357,198.242 120.335 C 197.813 120.313,196.737 119.966,195.852 119.565 C 194.274 118.848,194.230 118.848,193.600 119.584 C 193.247 119.997,192.438 120.438,191.803 120.565 C 191.154 120.695,190.546 121.118,190.415 121.531 C 190.287 121.935,189.930 122.266,189.622 122.266 C 189.314 122.266,189.106 122.485,189.160 122.754 C 189.214 123.022,188.994 123.197,188.672 123.142 C 187.388 122.922,191.271 125.822,193.319 126.613 C 196.012 127.652,201.528 128.032,204.195 127.362 C 207.733 126.472,212.022 123.853,211.451 122.930 C 211.317 122.713,211.391 122.649,211.616 122.788 C 212.125 123.103,214.653 120.348,215.517 118.537 C 216.294 116.908,216.085 116.916,221.123 118.333 C 223.363 118.964,225.254 119.315,225.326 119.115 C 225.397 118.914,225.803 118.750,226.227 118.750 C 226.652 118.750,226.892 118.576,226.761 118.364 C 226.619 118.134,226.794 118.082,227.192 118.235 C 227.683 118.423,227.777 118.354,227.543 117.975 C 227.325 117.622,227.373 117.550,227.695 117.749 C 227.969 117.919,228.460 117.702,228.869 117.230 C 229.255 116.785,229.714 116.549,229.887 116.706 C 230.061 116.864,230.074 116.768,229.916 116.494 C 229.758 116.219,229.422 116.020,229.170 116.052 C 228.174 116.174,227.701 115.996,227.951 115.591 C 228.095 115.357,228.532 115.250,228.921 115.351 C 229.406 115.478,229.564 115.367,229.422 114.997 C 229.308 114.700,229.058 114.555,228.865 114.674 C 228.673 114.793,228.516 114.796,228.516 114.681 C 228.516 114.428,231.831 112.891,232.377 112.891 C 232.591 112.891,232.874 112.717,233.005 112.504 C 233.142 112.283,232.985 112.218,232.637 112.351 C 232.304 112.479,232.031 112.389,232.031 112.151 C 232.031 111.913,231.861 111.719,231.653 111.719 C 231.445 111.719,231.376 111.982,231.499 112.305 C 231.666 112.738,231.444 112.891,230.645 112.891 C 229.602 112.891,229.589 112.865,230.252 112.133 C 230.922 111.393,230.837 111.345,226.504 110.009 C 221.497 108.465,218.991 107.915,219.922 108.564 M189.733 113.663 C 189.587 114.221,189.335 114.426,189.028 114.237 C 188.723 114.048,188.652 114.104,188.830 114.393 C 189.096 114.824,187.953 115.036,186.263 114.870 C 185.893 114.833,185.489 115.192,185.327 115.702 C 185.171 116.195,184.785 116.787,184.469 117.018 C 183.825 117.489,184.866 120.042,186.130 121.091 C 187.042 121.848,188.608 121.857,188.459 121.105 C 188.394 120.776,188.328 120.366,188.311 120.192 C 188.295 120.018,188.105 119.984,187.891 120.117 C 187.676 120.250,187.500 120.153,187.500 119.903 C 187.500 119.612,187.889 119.527,188.574 119.669 C 189.165 119.791,189.429 119.795,189.160 119.679 C 188.512 119.397,188.535 118.750,189.193 118.750 C 189.479 118.750,189.714 118.486,189.714 118.164 C 189.714 117.842,189.567 117.578,189.388 117.578 C 189.209 117.578,189.063 117.402,189.063 117.188 C 189.063 116.973,189.326 116.797,189.648 116.797 C 189.971 116.797,190.234 116.460,190.234 116.048 C 190.234 115.636,190.382 115.241,190.563 115.169 C 190.744 115.098,190.683 114.534,190.426 113.916 C 189.979 112.839,189.951 112.828,189.733 113.663 M231.445 113.672 C 230.758 113.967,230.796 114.011,231.761 114.035 C 232.399 114.051,232.757 113.899,232.617 113.672 C 232.484 113.457,232.342 113.294,232.301 113.309 C 232.260 113.324,231.875 113.487,231.445 113.672 M169.501 113.782 C 169.254 114.488,169.285 115.277,169.566 115.451 C 169.762 115.572,169.922 115.475,169.922 115.234 C 169.922 114.994,170.068 114.888,170.247 114.999 C 170.426 115.109,170.573 114.952,170.573 114.648 C 170.573 114.211,169.621 113.441,169.501 113.782 M331.389 116.273 C 331.325 117.308,331.841 117.177,332.126 116.087 C 332.230 115.690,332.119 115.365,331.880 115.365 C 331.641 115.365,331.420 115.774,331.389 116.273 M155.957 117.206 C 153.084 118.799,152.657 119.268,153.711 119.673 C 154.033 119.796,154.297 120.072,154.297 120.285 C 154.297 120.836,157.510 124.000,158.208 124.138 C 158.528 124.201,159.083 124.599,159.443 125.023 C 160.087 125.783,160.145 125.771,163.687 124.148 C 166.132 123.028,167.068 122.429,166.618 122.271 C 166.255 122.144,166.015 121.951,166.084 121.842 C 166.312 121.487,164.066 119.483,163.697 119.711 C 163.499 119.833,163.224 119.577,163.086 119.141 C 162.948 118.705,162.704 118.428,162.545 118.527 C 162.386 118.625,161.498 118.012,160.571 117.165 C 159.644 116.318,158.864 115.627,158.837 115.630 C 158.811 115.633,157.515 116.342,155.957 117.206 M241.016 116.380 C 241.016 116.609,240.706 116.797,240.328 116.797 C 239.950 116.797,239.167 117.236,238.587 117.773 C 238.008 118.311,237.351 118.750,237.126 118.750 C 236.902 118.750,236.719 118.920,236.719 119.128 C 236.719 119.336,236.455 119.406,236.133 119.282 C 235.811 119.158,235.547 119.252,235.547 119.489 C 235.547 119.727,235.097 119.922,234.547 119.922 C 233.985 119.922,233.653 119.752,233.787 119.534 C 233.927 119.308,233.601 119.181,233.008 119.230 C 232.080 119.307,232.049 119.360,232.670 119.814 C 233.289 120.266,233.259 120.313,232.349 120.313 C 231.193 120.313,230.130 121.274,230.947 121.580 C 231.221 121.683,231.797 121.612,232.227 121.422 C 232.943 121.106,232.935 121.091,232.129 121.244 C 231.646 121.336,231.250 121.252,231.250 121.057 C 231.250 120.862,231.909 120.706,232.715 120.709 C 233.804 120.714,234.030 120.812,233.594 121.094 C 233.266 121.306,233.207 121.475,233.460 121.478 C 233.708 121.482,233.828 121.804,233.725 122.195 C 233.577 122.763,234.115 123.164,236.399 124.184 C 239.811 125.709,240.669 126.026,239.907 125.481 C 239.516 125.201,239.828 124.922,241.144 124.378 C 242.112 123.978,242.821 123.514,242.718 123.348 C 242.616 123.183,242.704 123.047,242.913 123.047 C 243.123 123.047,243.383 123.267,243.491 123.535 C 243.600 123.804,243.702 123.452,243.719 122.754 C 243.740 121.900,243.942 121.484,244.336 121.484 C 244.658 121.484,244.922 121.298,244.922 121.071 C 244.922 120.843,245.065 120.745,245.239 120.853 C 245.414 120.961,246.020 120.651,246.586 120.164 L 247.616 119.279 245.195 117.883 C 242.402 116.273,241.016 115.774,241.016 116.380 M137.677 117.548 C 137.820 117.779,138.747 117.969,139.737 117.969 C 141.959 117.969,141.807 117.765,139.314 117.403 C 137.996 117.211,137.496 117.256,137.677 117.548 M260.156 117.583 C 258.760 117.740,257.178 118.070,256.641 118.317 L 255.664 118.767 256.748 118.615 C 257.344 118.532,257.925 118.616,258.040 118.802 C 258.155 118.988,257.975 119.141,257.640 119.141 C 256.637 119.141,257.222 121.641,258.242 121.716 C 258.543 121.738,259.107 121.783,259.496 121.816 C 259.884 121.848,260.097 122.046,259.967 122.255 C 259.838 122.464,260.082 122.935,260.510 123.301 C 261.172 123.868,261.204 124.029,260.724 124.386 C 260.300 124.700,260.784 124.816,262.664 124.850 C 264.582 124.885,265.597 125.136,267.002 125.921 C 268.011 126.485,268.980 126.857,269.157 126.748 C 269.496 126.538,270.047 127.225,270.166 128.005 C 270.266 128.665,271.484 130.342,271.484 129.820 C 271.484 129.582,271.813 129.302,272.214 129.197 C 273.017 128.987,273.185 130.056,272.427 130.550 C 272.153 130.728,272.067 131.942,272.184 133.960 C 272.819 144.929,258.954 149.207,253.513 139.722 C 252.874 138.607,252.329 137.168,252.301 136.523 L 252.251 135.352 251.953 136.523 C 251.618 137.842,251.576 137.809,251.347 136.057 C 251.245 135.285,251.404 134.589,251.764 134.230 C 252.083 133.911,252.344 133.341,252.344 132.964 C 252.344 131.806,253.827 129.136,255.221 127.786 L 256.543 126.503 255.732 125.021 C 255.285 124.206,254.340 123.142,253.632 122.657 C 252.923 122.171,252.344 121.521,252.344 121.212 C 252.344 120.833,252.096 120.729,251.582 120.892 C 251.163 121.025,250.317 120.874,249.702 120.556 L 248.584 119.978 248.636 121.610 C 248.665 122.527,248.455 123.474,248.158 123.772 C 247.754 124.177,247.736 124.430,248.081 124.846 C 248.424 125.259,248.422 125.391,248.072 125.391 C 247.818 125.391,247.719 125.566,247.852 125.781 C 247.984 125.996,247.809 126.172,247.462 126.172 C 246.453 126.172,244.406 128.610,245.092 128.994 C 245.518 129.232,245.562 129.597,245.284 130.567 C 241.577 143.493,254.696 155.630,267.819 151.418 C 269.907 150.747,278.789 167.966,281.878 178.671 C 282.615 181.227,283.171 183.353,283.113 183.396 C 283.055 183.439,282.079 183.972,280.943 184.580 C 268.949 191.005,268.968 209.635,280.974 215.555 C 283.142 216.624,283.153 216.699,281.815 221.343 C 278.546 232.686,270.046 248.847,267.657 248.263 C 253.891 244.898,241.511 256.722,245.144 269.764 C 245.665 271.633,232.761 277.989,222.243 281.046 C 216.243 282.789,216.218 282.788,215.200 280.791 C 209.429 269.480,191.534 269.258,184.961 280.417 C 183.563 282.790,183.711 282.776,177.868 281.076 C 170.001 278.787,159.316 274.073,154.773 270.886 C 154.713 270.844,154.854 269.588,155.085 268.094 C 156.432 259.417,151.207 251.009,142.814 248.344 C 140.177 247.507,134.126 247.526,132.537 248.376 C 130.264 249.592,121.279 232.573,117.944 220.735 C 117.314 218.497,116.842 216.628,116.895 216.583 C 116.949 216.537,117.897 216.046,119.003 215.490 C 131.064 209.433,131.018 190.460,118.928 184.545 C 117.220 183.709,116.915 183.403,117.074 182.690 C 118.746 175.233,122.576 165.773,127.087 157.959 C 128.192 156.043,128.823 154.534,128.677 154.153 C 128.520 153.746,128.691 153.430,129.159 153.263 C 129.557 153.121,130.246 152.568,130.689 152.035 C 131.404 151.176,131.599 151.122,132.411 151.557 C 136.746 153.877,145.708 151.557,150.351 146.915 C 152.164 145.101,154.366 141.225,153.158 141.972 C 152.535 142.357,152.431 141.251,152.986 140.150 C 153.301 139.528,153.741 139.173,154.052 139.293 C 155.041 139.672,155.498 133.686,154.694 130.881 C 154.385 129.805,154.436 129.400,154.949 128.833 C 155.335 128.407,155.410 128.125,155.139 128.125 C 154.891 128.125,154.688 127.763,154.688 127.321 C 154.688 126.878,154.512 126.625,154.297 126.758 C 154.082 126.891,153.906 126.813,153.906 126.586 C 153.906 126.358,153.632 126.172,153.297 126.172 C 152.962 126.172,152.785 126.016,152.902 125.826 C 153.020 125.635,152.857 125.264,152.539 125.000 C 152.222 124.736,152.065 124.354,152.191 124.150 C 152.317 123.946,152.144 123.473,151.805 123.099 C 151.467 122.726,151.118 121.990,151.030 121.464 C 150.932 120.879,150.663 120.572,150.337 120.672 C 150.044 120.763,149.424 120.851,148.958 120.868 C 148.493 120.885,148.177 120.963,148.256 121.043 C 148.335 121.122,148.189 121.423,147.931 121.713 C 146.764 123.019,146.547 123.370,146.768 123.591 C 146.899 123.722,146.683 123.828,146.289 123.828 C 145.895 123.828,145.681 123.936,145.812 124.067 C 145.944 124.199,145.539 124.855,144.912 125.525 L 143.773 126.744 144.891 127.923 C 149.541 132.824,148.204 140.706,142.188 143.868 C 138.397 145.860,133.168 144.915,130.161 141.696 C 129.571 141.064,128.969 140.796,128.389 140.907 C 127.616 141.055,127.506 140.908,127.473 139.684 C 127.451 138.858,127.593 138.389,127.822 138.531 C 128.062 138.679,128.102 138.435,127.928 137.886 C 127.774 137.400,127.643 135.839,127.637 134.419 C 127.632 132.998,127.546 132.063,127.447 132.341 C 127.310 132.726,127.140 132.739,126.724 132.394 C 126.425 132.146,126.277 131.787,126.395 131.596 C 126.512 131.406,126.374 131.250,126.087 131.250 C 125.799 131.250,125.112 130.734,124.559 130.104 C 123.968 129.430,123.248 129.007,122.812 129.077 C 122.404 129.143,121.871 129.039,121.628 128.846 C 120.616 128.046,119.744 133.747,120.323 137.373 C 120.760 140.108,122.120 143.750,122.704 143.750 C 122.893 143.750,123.019 143.882,122.985 144.043 C 122.951 144.204,123.057 144.643,123.221 145.018 C 123.436 145.509,122.844 146.709,121.101 149.315 C 115.994 156.951,110.711 169.021,108.079 179.072 L 107.166 182.557 105.214 183.193 C 88.871 188.521,88.888 211.224,105.238 216.781 L 107.165 217.436 108.245 221.706 C 110.606 231.035,115.162 241.433,120.884 250.548 L 123.465 254.660 122.514 256.166 C 112.594 271.880,132.484 290.491,147.653 279.690 L 148.783 278.886 152.223 280.867 C 160.916 285.873,172.087 290.223,181.688 292.342 C 182.528 292.527,182.757 292.853,182.966 294.165 C 185.703 311.279,214.286 311.350,217.020 294.249 L 217.263 292.731 223.182 291.056 C 232.155 288.518,241.417 284.608,249.003 280.156 L 250.936 279.021 252.714 280.150 C 267.853 289.756,285.926 273.248,277.886 257.158 L 276.485 254.355 277.643 252.666 C 283.605 243.973,289.024 232.019,291.774 221.491 L 292.843 217.397 294.392 216.948 C 310.653 212.240,311.188 189.176,295.170 183.376 L 292.871 182.544 291.419 177.502 C 288.495 167.346,283.874 156.996,278.762 149.153 C 276.814 146.164,276.034 143.681,277.107 143.880 C 279.752 144.373,280.229 127.909,277.617 126.294 C 277.400 126.161,277.338 126.237,277.478 126.463 C 277.636 126.720,277.254 126.875,276.464 126.875 C 275.400 126.875,275.195 126.730,275.195 125.975 C 275.195 125.480,275.327 125.156,275.488 125.256 C 275.649 125.355,275.781 125.152,275.781 124.805 C 275.781 124.414,275.959 124.283,276.249 124.462 C 276.506 124.620,276.327 124.204,275.852 123.537 C 274.166 121.169,267.969 117.376,267.969 118.712 C 267.969 119.077,270.134 119.970,270.393 119.711 C 270.473 119.631,270.565 119.899,270.595 120.307 C 270.633 120.803,270.465 120.978,270.091 120.834 C 269.783 120.716,269.531 120.463,269.531 120.271 C 269.531 119.739,268.452 119.855,268.227 120.410 C 268.113 120.693,268.017 120.602,268.000 120.192 C 267.983 119.803,267.790 119.596,267.572 119.731 C 267.353 119.865,267.276 120.139,267.399 120.339 C 267.523 120.539,267.369 120.703,267.057 120.703 C 266.745 120.703,266.377 120.996,266.240 121.354 C 266.060 121.824,265.871 121.887,265.565 121.580 C 265.331 121.346,264.853 121.263,264.503 121.395 C 263.958 121.602,263.965 121.537,264.554 120.943 C 265.524 119.965,265.025 119.462,263.390 119.769 C 262.394 119.955,262.075 119.903,262.271 119.585 C 262.609 119.039,262.287 119.018,261.338 119.526 C 260.758 119.837,260.638 119.780,260.721 119.233 C 260.794 118.752,260.472 118.485,259.611 118.313 C 258.628 118.117,258.782 118.062,260.426 118.020 C 261.541 117.992,262.563 117.793,262.695 117.578 C 262.828 117.363,262.882 117.212,262.816 117.243 C 262.750 117.273,261.553 117.427,260.156 117.583 M263.969 117.854 C 264.455 117.948,265.158 117.944,265.532 117.847 C 265.905 117.749,265.508 117.672,264.648 117.677 C 263.789 117.681,263.483 117.761,263.969 117.854 M129.779 119.133 C 128.042 119.921,124.061 123.427,123.350 124.795 C 123.124 125.230,123.681 124.751,124.589 123.730 C 125.496 122.710,126.514 121.875,126.852 121.875 C 127.402 121.875,127.400 121.947,126.832 122.574 C 126.243 123.225,126.257 123.278,127.025 123.336 C 128.579 123.453,128.471 124.023,126.878 124.116 C 124.962 124.227,124.182 124.794,124.394 125.920 C 124.480 126.381,124.564 126.978,124.580 127.246 C 124.596 127.515,124.873 127.734,125.195 127.734 C 125.518 127.734,125.781 128.008,125.781 128.343 C 125.781 128.678,125.635 128.862,125.456 128.751 C 125.277 128.641,125.130 128.803,125.130 129.113 C 125.130 129.523,125.264 129.564,125.626 129.264 C 125.974 128.974,126.362 128.980,126.928 129.284 C 127.375 129.522,127.734 129.553,127.734 129.352 C 127.734 129.153,127.978 128.896,128.276 128.782 C 128.665 128.633,128.764 128.813,128.628 129.424 C 128.486 130.064,128.633 129.971,129.225 129.049 C 130.790 126.613,134.357 124.711,137.660 124.551 L 138.867 124.492 137.725 124.323 C 136.865 124.196,136.720 124.067,137.139 123.802 C 137.571 123.528,137.508 123.448,136.861 123.443 C 135.707 123.435,133.514 122.469,133.665 122.036 C 133.733 121.840,133.394 121.624,132.910 121.555 C 132.427 121.486,132.031 121.256,132.031 121.044 C 132.031 120.831,131.812 120.789,131.543 120.950 C 131.207 121.152,131.221 121.039,131.587 120.587 C 132.045 120.023,132.023 119.894,131.435 119.668 C 130.788 119.420,130.790 119.376,131.465 118.882 C 132.484 118.137,131.723 118.250,129.779 119.133 M275.633 124.106 C 275.472 124.268,272.266 121.093,272.266 120.771 C 272.266 120.644,273.053 121.313,274.015 122.258 C 274.978 123.202,275.706 124.034,275.633 124.106 M268.066 125.238 C 268.228 125.268,268.570 125.315,268.828 125.342 C 269.151 125.375,269.171 125.517,268.893 125.794 C 268.395 126.292,267.324 125.920,267.027 125.145 C 266.877 124.755,266.962 124.668,267.290 124.876 C 267.556 125.045,267.905 125.208,268.066 125.238 M130.442 126.123 C 130.744 126.687,130.658 127.014,130.066 127.550 C 129.603 127.969,129.297 128.061,129.297 127.783 C 129.297 127.528,129.589 127.207,129.945 127.070 C 130.496 126.859,130.463 126.773,129.725 126.500 C 129.247 126.323,128.966 126.001,129.100 125.785 C 129.474 125.179,130.010 125.314,130.442 126.123 M149.338 135.200 C 149.523 135.331,149.357 135.560,148.969 135.709 C 148.370 135.939,148.350 136.034,148.839 136.343 C 149.289 136.628,149.299 136.708,148.884 136.713 C 148.588 136.716,148.448 136.963,148.566 137.272 C 148.683 137.577,148.507 137.930,148.174 138.058 C 147.739 138.225,147.636 138.116,147.808 137.668 C 147.939 137.326,148.059 136.137,148.073 135.027 C 148.097 133.188,148.140 133.095,148.551 133.984 C 148.799 134.521,149.153 135.068,149.338 135.200 M197.834 141.193 C 196.907 142.120,196.875 142.337,196.861 147.736 L 196.847 153.320 193.639 155.273 C 191.874 156.348,190.298 157.285,190.137 157.357 C 189.976 157.428,189.844 154.230,189.844 150.250 C 189.844 141.920,189.482 140.852,186.686 140.931 C 183.794 141.013,183.596 141.737,183.580 152.268 L 183.566 161.523 180.748 163.248 C 179.198 164.196,174.502 167.066,170.313 169.625 C 159.981 175.937,159.772 176.205,159.768 183.105 L 159.766 186.719 152.521 186.719 C 144.422 186.719,143.359 187.071,143.359 189.758 C 143.359 192.255,144.387 192.604,152.495 192.860 L 159.766 193.089 159.766 196.544 L 159.766 200.000 152.372 200.000 L 144.979 200.000 144.169 201.029 C 143.144 202.333,143.142 203.524,144.162 204.822 L 144.965 205.842 152.268 205.948 L 159.570 206.055 159.683 209.473 L 159.796 212.891 152.925 212.891 C 144.469 212.891,143.359 213.282,143.359 216.261 C 143.359 218.769,144.541 219.141,152.521 219.141 L 159.766 219.141 159.774 220.215 C 159.802 223.730,160.237 224.119,172.998 232.047 L 183.398 238.508 183.594 248.120 C 183.814 258.939,183.930 259.375,186.602 259.375 C 189.534 259.375,189.844 258.482,189.844 250.038 L 189.844 242.618 193.359 244.811 L 196.875 247.004 196.875 252.434 C 196.875 258.350,197.053 259.030,198.784 259.747 C 201.900 261.038,203.112 258.896,203.119 252.084 L 203.125 246.941 206.543 244.763 L 209.961 242.584 210.156 250.234 C 210.370 258.604,210.618 259.375,213.097 259.375 C 216.141 259.375,216.403 258.448,216.425 247.578 L 216.443 238.477 224.711 233.398 C 239.232 224.480,239.518 224.245,240.074 220.765 L 240.334 219.141 247.413 219.128 C 254.813 219.115,255.276 219.019,256.186 217.311 C 256.889 215.992,256.738 215.271,255.499 214.032 L 254.357 212.891 247.280 212.891 L 240.204 212.891 240.317 209.473 L 240.430 206.055 247.701 205.949 C 255.913 205.829,256.406 205.654,256.406 202.860 C 256.406 200.235,255.669 200.000,247.418 200.000 L 240.234 200.000 240.234 196.484 L 240.234 192.969 241.309 192.893 C 241.899 192.852,245.133 192.808,248.494 192.796 C 255.973 192.768,257.814 191.683,256.077 188.325 C 255.266 186.757,255.059 186.719,247.267 186.719 L 240.302 186.719 240.170 182.294 C 239.979 175.859,240.364 176.276,226.999 168.019 L 216.016 161.232 216.016 151.905 C 216.016 141.387,215.917 141.016,213.114 141.016 C 210.469 141.016,210.156 141.993,210.156 150.248 C 210.156 154.194,210.056 157.422,209.934 157.422 C 209.811 157.422,208.976 156.927,208.078 156.322 C 207.180 155.718,205.610 154.744,204.590 154.158 L 202.734 153.092 202.734 147.460 C 202.734 142.169,202.683 141.779,201.879 141.031 C 200.715 139.946,199.013 140.014,197.834 141.193 M200.977 141.016 C 200.844 141.230,200.306 141.406,199.782 141.406 C 199.257 141.406,198.828 141.230,198.828 141.016 C 198.828 140.801,199.366 140.625,200.023 140.625 C 200.720 140.625,201.117 140.788,200.977 141.016 M204.593 186.035 C 210.176 191.476,219.957 201.980,220.297 202.898 C 221.201 205.342,218.990 207.031,214.885 207.031 L 212.154 207.031 212.034 215.074 C 211.877 225.603,213.130 224.609,200.009 224.609 C 190.423 224.609,189.901 224.571,188.920 223.800 L 187.891 222.990 187.891 215.011 L 187.891 207.031 185.059 207.025 C 180.552 207.016,178.422 205.198,179.840 202.570 C 180.599 201.166,197.320 183.625,198.569 182.924 C 200.153 182.035,200.869 182.405,204.593 186.035 M192.195 194.962 L 184.608 202.930 187.777 203.043 C 191.961 203.192,191.762 202.742,191.886 212.335 L 191.992 220.508 199.902 220.614 L 207.813 220.719 207.813 212.747 C 207.813 202.945,207.700 203.190,212.286 203.035 L 215.393 202.930 207.588 194.962 L 199.783 186.995 192.195 194.962 M113.649 190.459 C 120.725 192.561,122.924 201.723,117.624 207.023 C 113.454 211.193,106.936 211.117,103.193 206.854 C 96.251 198.947,103.573 187.467,113.649 190.459 M291.797 190.263 C 297.213 191.496,300.652 197.386,299.091 202.756 C 297.012 209.908,288.528 212.419,282.854 207.562 C 274.906 200.759,281.539 187.927,291.797 190.263 M142.040 256.182 C 149.470 260.010,149.398 270.634,141.917 274.255 C 133.700 278.233,124.799 269.407,128.662 261.111 C 131.010 256.068,137.312 253.747,142.040 256.182 M265.211 255.693 C 272.449 257.843,274.583 267.654,268.899 272.644 C 259.669 280.748,246.694 267.963,254.801 258.753 C 257.757 255.394,260.997 254.442,265.211 255.693 M203.175 280.284 C 209.044 282.284,211.742 289.214,208.727 294.550 C 204.404 302.201,193.254 301.168,190.470 292.857 C 187.874 285.108,195.419 277.642,203.175 280.284 " stroke="none" fill="#4ca347" fill-rule="evenodd"></path><path id="path1" d="M0.000 200.000 L 0.000 400.000 200.000 400.000 L 400.000 400.000 400.000 200.000 L 400.000 0.000 200.000 0.000 L 0.000 0.000 0.000 200.000 M312.109 64.377 C 325.526 69.046,334.990 80.293,336.741 93.647 C 337.005 95.658,337.100 132.269,337.024 202.344 L 336.910 308.008 335.991 310.938 C 331.555 325.073,320.345 334.991,306.421 337.099 C 304.565 337.380,270.588 337.475,198.633 337.401 L 93.555 337.293 90.234 336.414 C 76.478 332.771,66.331 322.159,63.501 308.454 C 62.581 304.005,62.532 96.093,63.449 91.737 C 66.354 77.939,76.384 67.371,89.899 63.872 L 93.555 62.925 200.977 63.005 L 308.398 63.086 312.109 64.377 M93.750 70.190 C 82.196 72.104,72.221 82.157,70.334 93.788 C 69.639 98.066,69.789 303.802,70.489 307.103 C 72.664 317.366,79.685 325.138,90.237 328.963 L 92.773 329.883 198.828 329.991 C 316.581 330.111,307.444 330.310,313.305 327.502 C 321.296 323.672,326.765 317.154,329.170 308.594 C 330.279 304.643,330.282 94.870,329.172 91.211 C 325.958 80.616,317.646 72.635,307.617 70.514 C 305.034 69.967,96.994 69.653,93.750 70.190 M207.657 94.102 C 212.210 96.233,216.000 100.778,217.199 105.547 L 217.661 107.384 219.866 107.796 C 226.625 109.060,239.093 113.971,246.768 118.392 L 250.914 120.781 252.313 119.941 C 268.725 110.086,286.903 127.033,277.873 143.770 L 276.914 145.547 279.468 149.629 C 284.785 158.129,288.918 167.499,291.726 177.423 L 293.131 182.385 295.067 183.018 C 311.191 188.292,311.190 211.977,295.066 217.060 L 293.046 217.697 292.374 220.469 C 290.129 229.732,284.685 242.319,279.459 250.325 L 276.826 254.360 278.037 256.770 C 286.197 273.004,269.258 289.468,253.376 280.738 L 250.796 279.320 247.706 281.196 C 241.316 285.078,228.451 290.228,220.652 292.028 L 217.672 292.715 217.227 294.698 C 213.425 311.647,186.330 311.647,182.807 294.697 L 182.395 292.715 179.381 292.031 C 171.645 290.278,160.728 285.987,153.288 281.776 L 148.895 279.290 146.616 280.645 C 137.680 285.955,126.223 282.513,121.583 273.124 C 119.358 268.622,119.360 261.842,121.588 257.335 L 123.059 254.359 120.719 250.742 C 115.303 242.367,110.281 230.979,107.958 221.804 L 106.914 217.684 104.852 217.034 C 88.784 211.969,88.764 188.038,104.823 182.975 L 106.856 182.335 107.922 178.266 C 110.402 168.799,115.581 157.052,120.732 149.206 L 123.071 145.644 121.732 142.966 C 113.370 126.252,132.322 109.848,148.091 120.152 C 149.100 120.811,149.157 120.793,152.561 118.737 C 159.398 114.607,173.091 109.140,179.945 107.803 L 182.351 107.334 182.792 105.585 C 185.433 95.097,197.688 89.437,207.657 94.102 M197.786 100.751 C 188.781 103.001,187.613 115.421,196.048 119.231 C 205.847 123.657,214.371 110.713,206.577 103.242 C 204.389 101.145,200.556 100.059,197.786 100.751 M177.751 119.183 C 165.551 122.801,154.261 128.514,155.075 130.657 C 156.910 135.483,154.115 144.273,149.471 148.282 C 144.981 152.158,136.304 154.031,132.434 151.960 C 131.455 151.436,131.340 151.552,128.955 155.458 C 124.110 163.394,115.951 182.901,117.283 183.364 C 131.225 188.204,132.229 209.187,118.843 215.974 C 116.890 216.964,116.856 216.419,119.347 224.068 C 121.685 231.247,127.288 242.645,130.678 247.116 L 131.601 248.333 133.672 247.773 C 145.828 244.481,157.700 256.265,155.271 269.213 C 155.014 270.581,155.077 270.693,156.675 271.701 C 162.169 275.170,172.100 279.290,180.176 281.451 L 183.605 282.369 184.408 280.794 C 190.453 268.945,209.516 269.026,215.652 280.928 L 216.392 282.363 220.598 281.229 C 226.935 279.521,231.246 277.865,237.500 274.737 C 245.325 270.822,245.060 271.082,244.544 267.851 C 242.578 255.545,254.955 244.327,266.622 247.838 C 268.101 248.283,268.596 248.305,268.843 247.936 C 274.248 239.857,278.911 229.997,281.419 221.343 C 282.734 216.805,282.722 216.708,280.762 215.754 C 267.547 209.325,268.736 189.825,282.738 183.342 C 283.005 183.219,280.306 174.607,278.872 171.008 C 275.642 162.901,269.175 151.384,268.041 151.722 C 254.305 155.810,241.138 143.725,244.885 130.469 C 245.682 127.651,217.734 115.708,216.211 118.215 C 208.362 131.137,190.186 131.547,184.201 118.936 C 183.847 118.189,183.434 117.588,183.282 117.601 C 183.131 117.614,180.642 118.326,177.751 119.183 M135.352 125.365 C 130.748 126.486,128.146 129.947,128.137 134.961 C 128.122 143.529,138.507 147.874,144.436 141.780 C 151.262 134.763,144.789 123.068,135.352 125.365 M259.696 125.530 C 250.619 128.048,250.170 140.835,259.048 143.968 C 265.408 146.212,271.890 141.515,271.866 134.681 C 271.844 128.226,265.950 123.795,259.696 125.530 M202.166 140.803 C 203.157 141.793,203.263 142.762,203.310 151.270 C 203.316 152.291,203.430 153.126,203.563 153.126 C 203.697 153.125,205.147 154.000,206.786 155.070 L 209.766 157.015 209.766 150.168 C 209.766 141.543,210.119 140.625,213.440 140.625 C 216.253 140.625,216.428 141.261,216.520 151.852 L 216.602 161.237 220.508 163.640 C 241.798 176.736,240.356 175.411,240.562 182.063 L 240.694 186.328 247.275 186.328 C 254.730 186.328,255.663 186.544,256.462 188.455 C 258.029 192.206,256.156 193.184,247.611 193.074 L 240.625 192.985 240.625 196.297 L 240.625 199.609 247.487 199.609 C 254.869 199.609,255.508 199.751,256.461 201.594 C 258.316 205.181,256.324 206.250,247.783 206.250 L 240.625 206.250 240.625 209.350 L 240.625 212.451 247.616 212.573 C 255.219 212.706,255.812 212.878,256.703 215.209 C 257.948 218.466,255.635 219.531,247.316 219.531 L 240.687 219.531 240.413 220.801 C 239.605 224.545,239.362 224.744,224.132 234.137 L 216.602 238.782 216.602 247.848 C 216.602 257.596,216.446 258.485,214.587 259.332 C 213.066 260.025,212.128 259.845,210.907 258.624 L 209.766 257.482 209.766 250.240 L 209.766 242.997 206.641 245.017 L 203.516 247.037 203.513 251.546 C 203.510 258.176,202.690 260.156,199.945 260.156 C 197.015 260.156,196.484 258.944,196.484 252.258 L 196.484 247.055 193.675 245.305 C 192.130 244.342,190.724 243.496,190.550 243.424 C 190.377 243.353,190.234 246.487,190.234 250.388 L 190.234 257.482 189.093 258.624 C 187.661 260.055,186.010 260.127,184.494 258.824 L 183.398 257.881 183.282 248.306 L 183.165 238.731 172.583 232.158 C 161.328 225.168,160.079 224.105,159.568 221.079 L 159.306 219.531 152.602 219.525 C 144.192 219.518,142.404 218.696,143.173 215.192 C 143.681 212.882,145.015 212.503,152.637 212.501 L 159.375 212.500 159.375 209.620 L 159.375 206.740 152.272 206.453 L 145.168 206.166 144.068 205.066 C 142.696 203.693,142.668 202.370,143.980 200.811 L 144.991 199.609 152.183 199.609 L 159.375 199.609 159.375 196.537 L 159.375 193.465 152.441 193.282 C 145.090 193.088,144.187 192.872,143.387 191.116 C 142.710 189.629,142.897 188.683,144.111 187.470 L 145.252 186.328 152.314 186.328 L 159.375 186.328 159.377 182.910 C 159.381 176.619,160.114 175.463,166.532 171.621 C 168.933 170.184,173.667 167.258,177.051 165.118 L 183.203 161.229 183.203 152.451 C 183.203 141.312,183.851 139.651,187.788 140.699 C 189.936 141.271,190.234 142.403,190.234 149.981 C 190.234 153.644,190.342 156.641,190.474 156.641 C 190.606 156.641,192.012 155.831,193.599 154.842 L 196.484 153.044 196.484 147.830 C 196.484 144.829,196.669 142.209,196.920 141.660 C 197.801 139.724,200.626 139.263,202.166 140.803 M190.464 191.492 C 179.115 203.031,178.657 203.693,180.646 205.682 C 181.503 206.539,181.935 206.641,184.706 206.641 C 188.543 206.641,188.281 205.998,188.281 215.401 C 188.281 225.184,187.005 224.219,199.933 224.219 C 212.991 224.219,211.719 225.252,211.719 214.648 L 211.719 206.641 214.996 206.641 C 220.729 206.641,221.681 204.736,218.054 200.521 C 212.624 194.212,200.996 182.792,200.000 182.790 C 199.243 182.789,197.102 184.742,190.464 191.492 M208.314 195.246 C 212.335 199.399,215.625 202.959,215.625 203.156 C 215.625 203.354,214.152 203.516,212.353 203.516 C 208.020 203.516,208.239 203.040,208.114 212.726 L 208.008 220.898 200.223 221.005 C 195.070 221.075,192.297 220.969,192.020 220.692 C 191.752 220.423,191.594 217.442,191.580 212.371 C 191.554 202.961,191.785 203.516,187.891 203.516 C 183.793 203.516,183.788 203.328,187.755 199.127 C 197.231 189.095,199.718 186.750,200.373 187.232 C 200.719 187.487,204.293 191.093,208.314 195.246 M107.108 190.954 C 100.647 193.252,98.711 201.652,103.463 206.774 C 107.292 210.902,114.767 210.483,118.228 205.945 C 124.111 198.231,116.291 187.689,107.108 190.954 M286.225 190.910 C 276.051 194.690,278.208 208.942,289.063 209.660 C 297.093 210.192,302.054 200.775,297.212 194.191 C 294.722 190.805,290.169 189.445,286.225 190.910 M135.154 255.834 C 124.333 259.125,126.432 274.757,137.695 274.757 C 140.919 274.757,142.933 273.885,144.910 271.633 C 151.172 264.501,144.133 253.102,135.154 255.834 M259.052 255.964 C 252.742 257.984,250.555 266.970,255.196 271.812 C 261.665 278.561,272.717 273.502,271.760 264.229 C 271.125 258.078,264.965 254.072,259.052 255.964 M195.796 280.903 C 188.553 284.488,188.384 294.769,195.508 298.375 C 205.210 303.286,214.205 291.567,207.159 283.194 C 204.693 280.264,199.289 279.174,195.796 280.903 " stroke="none" fill="#f8f8f8" fill-rule="evenodd"></path><path id="path2" d="M92.712 63.465 C 87.816 64.359,81.973 66.616,80.728 68.094 C 80.333 68.562,80.135 68.708,80.287 68.418 C 80.510 67.993,80.403 67.977,79.735 68.334 C 79.279 68.578,78.906 68.870,78.906 68.982 C 78.906 69.095,79.109 69.061,79.357 68.908 C 79.639 68.734,79.702 68.801,79.526 69.087 C 79.370 69.338,79.095 69.453,78.915 69.342 C 78.735 69.230,77.737 69.823,76.696 70.659 C 74.624 72.323,70.153 76.867,71.094 76.352 C 71.416 76.176,71.140 76.546,70.480 77.176 C 67.120 80.382,63.526 89.188,63.556 94.141 C 63.567 95.989,63.458 96.782,63.260 96.289 C 63.087 95.859,62.947 103.770,62.949 113.867 C 62.951 123.965,63.019 132.051,63.100 131.836 C 63.181 131.621,63.335 128.633,63.441 125.195 C 63.546 121.758,63.656 118.770,63.684 118.555 C 63.712 118.340,63.643 117.769,63.530 117.285 C 63.418 116.802,63.486 116.406,63.682 116.406 C 63.878 116.406,63.921 116.099,63.779 115.723 C 63.548 115.112,63.600 115.118,64.262 115.775 C 64.729 116.238,65.059 116.347,65.152 116.068 C 65.338 115.508,66.406 115.483,66.406 116.039 C 66.406 116.266,66.242 116.351,66.042 116.227 C 65.839 116.102,65.734 116.482,65.806 117.083 C 65.877 117.677,66.142 118.116,66.395 118.057 C 66.648 117.998,66.753 118.115,66.628 118.316 C 66.503 118.518,67.018 119.064,67.771 119.530 L 69.141 120.376 69.222 124.544 C 69.266 126.836,69.409 120.889,69.539 111.328 C 69.740 96.555,69.877 93.593,70.447 91.602 C 71.269 88.732,73.538 83.853,74.850 82.132 C 75.384 81.432,75.747 80.859,75.656 80.859 C 75.290 80.859,79.987 76.245,81.445 75.173 C 82.305 74.541,83.241 73.760,83.525 73.438 C 83.854 73.065,83.943 73.044,83.771 73.379 C 83.547 73.813,83.663 73.821,84.426 73.424 C 85.614 72.804,85.945 72.459,85.038 72.785 C 84.593 72.945,84.428 72.886,84.590 72.625 C 84.730 72.398,85.086 72.305,85.380 72.418 C 85.674 72.531,86.843 72.203,87.977 71.690 C 93.021 69.407,86.575 69.531,199.949 69.531 C 313.954 69.531,307.117 69.390,312.384 71.855 C 313.753 72.495,314.768 72.850,314.640 72.643 C 314.512 72.435,314.700 72.266,315.058 72.266 C 315.466 72.266,315.627 72.477,315.491 72.832 C 315.346 73.209,315.462 73.326,315.838 73.181 C 316.148 73.062,316.306 72.810,316.188 72.620 C 316.071 72.430,316.253 72.381,316.593 72.512 C 317.141 72.722,317.132 72.813,316.515 73.317 C 316.133 73.630,316.040 73.775,316.309 73.639 C 316.577 73.503,316.797 73.554,316.797 73.753 C 316.797 73.952,317.462 74.555,318.276 75.093 C 320.418 76.511,323.649 79.916,325.416 82.617 C 326.260 83.906,327.082 85.144,327.244 85.367 C 327.406 85.590,327.579 85.942,327.627 86.148 C 327.675 86.355,328.148 87.691,328.679 89.117 C 329.209 90.544,329.812 92.829,330.018 94.195 C 330.223 95.562,330.496 97.119,330.622 97.656 C 330.749 98.193,330.862 103.239,330.873 108.868 C 330.890 117.847,330.965 119.076,331.484 118.876 C 331.810 118.751,331.980 118.399,331.863 118.093 C 331.745 117.785,331.822 117.644,332.036 117.776 C 332.248 117.907,332.422 117.829,332.422 117.601 C 332.422 117.374,332.729 117.175,333.105 117.160 C 333.690 117.137,333.676 117.084,333.008 116.797 L 332.227 116.461 333.008 116.428 C 333.598 116.402,333.659 116.312,333.260 116.059 C 332.918 115.842,333.263 115.741,334.237 115.772 C 335.065 115.799,335.871 115.996,336.029 116.211 C 336.187 116.426,336.357 115.547,336.408 114.258 C 336.458 112.969,336.598 115.605,336.719 120.117 C 336.895 126.704,336.940 125.434,336.946 113.672 C 336.950 105.615,336.848 101.045,336.719 103.516 L 336.484 108.008 336.406 104.004 C 336.350 101.147,336.195 100.028,335.863 100.098 C 335.607 100.151,335.326 99.862,335.237 99.455 C 335.119 98.906,335.239 98.776,335.703 98.954 C 336.207 99.148,336.329 98.912,336.332 97.742 C 336.335 96.943,336.437 95.586,336.560 94.727 C 336.712 93.662,336.663 93.335,336.405 93.701 C 336.140 94.077,336.034 93.667,336.051 92.334 C 336.085 89.663,333.569 82.390,332.336 81.597 C 332.132 81.466,332.000 81.232,332.044 81.079 C 332.359 79.976,322.671 68.996,321.987 69.680 C 321.856 69.810,321.509 69.574,321.216 69.155 C 320.918 68.730,320.428 68.489,320.110 68.612 C 319.781 68.738,319.429 68.547,319.281 68.162 C 318.971 67.355,315.076 65.557,310.547 64.131 L 307.227 63.086 201.367 63.020 C 115.681 62.967,94.975 63.052,92.712 63.465 M196.582 92.836 C 195.884 92.936,195.313 93.177,195.313 93.372 C 195.313 93.566,195.049 93.624,194.727 93.501 C 194.404 93.377,194.141 93.481,194.141 93.731 C 194.141 93.982,193.960 94.075,193.738 93.938 C 192.932 93.440,187.891 96.850,187.891 97.893 C 187.891 98.164,187.555 98.491,187.145 98.622 C 186.734 98.752,186.163 99.149,185.875 99.504 C 185.428 100.055,185.438 100.105,185.938 99.846 C 186.260 99.678,186.084 99.924,185.547 100.391 C 185.010 100.858,184.808 101.115,185.098 100.963 C 185.523 100.740,185.539 100.847,185.181 101.515 C 184.938 101.971,184.574 102.344,184.374 102.344 C 184.173 102.344,184.121 102.636,184.258 102.994 C 184.441 103.469,184.367 103.557,183.984 103.320 C 183.602 103.084,183.528 103.172,183.710 103.647 C 183.848 104.004,183.778 104.297,183.555 104.297 C 183.320 104.297,183.261 104.645,183.414 105.127 C 183.608 105.739,183.547 105.877,183.183 105.652 C 182.822 105.429,182.750 105.578,182.915 106.210 C 183.135 107.050,181.793 108.046,180.664 107.880 C 180.449 107.849,180.273 108.262,180.273 108.799 C 180.273 109.419,180.451 109.706,180.762 109.587 C 181.030 109.484,181.250 109.639,181.250 109.931 C 181.250 110.224,181.502 110.560,181.810 110.678 C 182.119 110.797,182.578 111.282,182.832 111.756 C 183.233 112.504,183.207 112.585,182.636 112.366 C 182.104 112.162,182.137 112.316,182.810 113.172 C 183.596 114.171,183.603 114.245,182.935 114.484 C 182.545 114.623,182.097 114.541,181.940 114.302 C 181.751 114.016,181.648 114.068,181.641 114.453 C 181.630 114.961,181.581 114.963,181.270 114.472 C 181.072 114.160,180.998 113.764,181.104 113.593 C 181.209 113.421,181.100 113.281,180.859 113.281 C 180.619 113.281,180.531 113.105,180.664 112.891 C 180.797 112.676,180.535 112.500,180.083 112.500 C 179.630 112.500,178.872 112.104,178.399 111.619 C 176.872 110.055,174.750 110.874,175.261 112.829 C 175.423 113.446,175.723 113.593,176.602 113.481 C 177.580 113.358,177.734 113.468,177.734 114.286 C 177.734 114.869,177.960 115.234,178.320 115.234 C 178.643 115.234,178.906 115.380,178.906 115.558 C 178.906 115.737,179.302 115.868,179.785 115.851 C 180.323 115.832,180.622 116.023,180.555 116.342 C 180.495 116.629,180.818 116.961,181.272 117.080 C 181.906 117.246,181.976 117.377,181.576 117.644 C 181.233 117.873,181.389 117.916,182.031 117.768 C 182.568 117.644,183.391 117.515,183.860 117.480 C 184.328 117.445,184.625 117.277,184.520 117.106 C 184.415 116.936,184.496 116.797,184.700 116.797 C 184.904 116.797,185.184 116.347,185.322 115.798 C 185.480 115.168,185.821 114.824,186.244 114.866 C 187.944 115.037,189.098 114.826,188.830 114.393 C 188.657 114.113,188.723 114.048,189.003 114.221 C 189.279 114.391,189.606 114.101,189.844 113.475 C 190.345 112.159,190.344 111.214,189.844 111.523 C 189.607 111.670,189.453 111.123,189.453 110.138 C 189.453 108.867,189.327 108.558,188.880 108.730 C 188.096 109.031,187.717 108.298,188.295 107.600 C 188.679 107.138,188.635 107.031,188.059 107.031 C 187.386 107.031,187.387 107.004,188.082 106.496 C 188.716 106.033,188.919 106.059,189.601 106.695 C 190.409 107.448,191.678 105.942,191.096 104.920 C 190.986 104.726,191.098 104.692,191.346 104.846 C 191.738 105.088,191.959 104.661,191.859 103.855 C 191.842 103.720,192.172 103.297,192.594 102.916 C 193.015 102.535,193.359 102.350,193.359 102.505 C 193.359 102.660,193.843 102.451,194.434 102.039 C 198.046 99.523,203.470 99.967,206.799 103.050 C 207.423 103.629,207.791 103.855,207.617 103.553 C 207.398 103.173,207.448 103.095,207.778 103.299 C 208.040 103.461,208.170 103.679,208.067 103.782 C 207.963 103.886,208.301 104.879,208.818 105.989 C 209.335 107.099,209.760 108.733,209.762 109.619 C 209.767 111.850,210.174 113.672,210.668 113.672 C 210.895 113.672,211.858 114.048,212.808 114.508 C 213.781 114.979,214.645 115.187,214.787 114.985 C 214.926 114.787,215.436 114.651,215.922 114.682 C 216.625 114.726,216.715 114.629,216.362 114.205 C 216.119 113.912,216.085 113.672,216.286 113.672 C 216.487 113.672,216.941 113.065,217.295 112.324 C 217.649 111.582,218.383 110.684,218.927 110.328 C 219.470 109.972,219.818 109.524,219.700 109.332 C 219.582 109.141,219.684 108.984,219.927 108.984 C 220.729 108.984,219.308 107.889,218.325 107.750 C 217.629 107.652,217.351 107.337,217.259 106.543 C 217.191 105.952,216.977 105.469,216.783 105.469 C 216.589 105.469,216.532 105.205,216.656 104.883 C 216.779 104.561,216.691 104.297,216.460 104.297 C 216.229 104.297,216.141 104.033,216.265 103.711 C 216.389 103.389,216.285 103.125,216.034 103.125 C 215.784 103.125,215.672 102.975,215.785 102.792 C 216.407 101.785,213.673 98.792,212.357 99.039 C 210.866 99.319,210.254 98.542,210.947 97.247 C 211.473 96.265,207.267 93.426,206.004 93.911 C 205.634 94.053,205.528 93.970,205.708 93.679 C 205.900 93.369,205.763 93.313,205.271 93.502 C 204.869 93.656,204.436 93.585,204.285 93.339 C 203.997 92.874,198.721 92.530,196.582 92.836 M210.301 100.310 C 210.407 100.480,209.934 100.657,209.250 100.702 C 208.313 100.765,208.152 100.690,208.594 100.399 C 209.305 99.929,210.043 99.891,210.301 100.310 M208.137 102.768 C 206.765 103.119,206.063 102.416,206.882 101.511 C 207.513 100.814,207.558 100.819,208.290 101.663 C 209.043 102.531,209.043 102.536,208.137 102.768 M187.391 105.341 C 187.594 105.215,187.760 105.359,187.760 105.660 C 187.760 105.960,187.570 106.172,187.337 106.131 C 186.832 106.040,186.340 105.425,186.340 104.883 C 186.340 104.668,186.494 104.734,186.681 105.031 C 186.869 105.327,187.188 105.466,187.391 105.341 M174.350 109.636 C 174.494 109.780,174.303 110.239,173.927 110.657 C 173.253 111.405,173.265 111.407,174.675 110.820 C 175.463 110.491,176.239 110.340,176.398 110.482 C 176.557 110.625,176.554 110.510,176.390 110.227 C 176.227 109.944,175.847 109.807,175.546 109.922 C 175.246 110.037,175.000 109.961,175.000 109.753 C 175.000 109.545,174.795 109.375,174.544 109.375 C 174.294 109.375,174.206 109.493,174.350 109.636 M229.886 111.324 C 229.743 111.555,229.930 111.606,230.351 111.453 C 231.004 111.214,231.001 111.257,230.311 112.043 C 229.569 112.887,229.571 112.891,230.621 112.891 C 231.408 112.891,231.646 112.718,231.560 112.207 C 231.376 111.109,230.352 110.569,229.886 111.324 M166.406 112.566 C 166.406 112.731,166.143 112.765,165.820 112.641 C 165.498 112.518,165.234 112.621,165.234 112.872 C 165.234 113.122,165.094 113.240,164.921 113.134 C 164.749 113.028,163.308 113.533,161.719 114.257 L 158.830 115.574 160.543 117.140 C 161.485 118.001,162.386 118.625,162.545 118.527 C 162.704 118.428,162.948 118.705,163.086 119.141 C 163.224 119.577,163.499 119.833,163.697 119.711 C 164.063 119.485,165.772 120.972,165.959 121.680 C 166.243 122.756,173.217 121.104,173.764 119.831 C 173.836 119.664,174.049 119.622,174.238 119.738 C 174.427 119.855,174.939 119.592,175.376 119.155 L 176.172 118.359 175.117 118.359 C 174.292 118.359,174.165 118.256,174.535 117.887 C 174.905 117.517,174.781 117.219,173.966 116.520 C 172.745 115.470,172.429 115.417,172.124 116.211 C 172.001 116.533,171.674 116.794,171.399 116.791 C 171.006 116.786,171.003 116.719,171.382 116.478 C 171.994 116.089,171.190 113.698,170.422 113.623 C 170.147 113.596,169.746 113.530,169.531 113.477 C 169.316 113.423,168.833 113.345,168.457 113.303 C 167.863 113.236,167.876 113.186,168.555 112.919 C 169.192 112.669,169.065 112.580,167.871 112.439 C 167.065 112.344,166.406 112.401,166.406 112.566 M232.813 112.535 C 232.490 112.716,231.392 113.226,230.371 113.668 C 229.351 114.111,228.516 114.567,228.516 114.681 C 228.516 114.796,228.673 114.793,228.865 114.674 C 229.058 114.555,229.308 114.700,229.422 114.997 C 229.564 115.367,229.406 115.478,228.921 115.351 C 228.532 115.250,228.095 115.357,227.951 115.591 C 227.701 115.996,228.174 116.174,229.170 116.052 C 229.422 116.020,229.758 116.219,229.916 116.494 C 230.074 116.768,230.061 116.864,229.887 116.706 C 229.714 116.549,229.255 116.785,228.869 117.230 C 228.460 117.702,227.969 117.919,227.695 117.749 C 227.373 117.550,227.325 117.622,227.543 117.975 C 227.777 118.354,227.683 118.423,227.192 118.235 C 226.794 118.082,226.619 118.134,226.761 118.364 C 226.892 118.576,226.656 118.750,226.237 118.750 C 225.817 118.750,225.366 119.033,225.233 119.379 C 225.063 119.821,225.160 119.944,225.556 119.792 C 225.867 119.673,226.182 119.757,226.256 119.980 C 226.330 120.202,226.869 120.412,227.453 120.446 C 228.037 120.480,228.515 120.630,228.515 120.778 C 228.516 120.927,228.872 120.980,229.307 120.896 C 229.743 120.813,230.012 120.885,229.905 121.057 C 229.657 121.459,231.582 122.348,232.061 122.052 C 232.259 121.929,232.422 122.025,232.422 122.266 C 232.422 122.506,232.583 122.603,232.779 122.482 C 232.976 122.360,233.208 122.477,233.297 122.741 C 233.385 123.006,233.559 122.831,233.684 122.353 C 233.822 121.826,233.733 121.482,233.460 121.478 C 233.207 121.475,233.266 121.306,233.594 121.094 C 234.030 120.812,233.804 120.714,232.715 120.709 C 231.909 120.706,231.250 120.862,231.250 121.057 C 231.250 121.252,231.646 121.336,232.129 121.244 C 232.935 121.091,232.943 121.106,232.227 121.422 C 231.797 121.612,231.221 121.683,230.947 121.580 C 230.130 121.274,231.193 120.313,232.349 120.313 C 233.259 120.313,233.289 120.266,232.670 119.814 C 232.049 119.360,232.080 119.307,233.008 119.230 C 233.601 119.181,233.927 119.308,233.787 119.534 C 233.653 119.752,233.985 119.922,234.547 119.922 C 235.097 119.922,235.547 119.727,235.547 119.489 C 235.547 119.252,235.811 119.158,236.133 119.282 C 236.455 119.406,236.719 119.336,236.719 119.128 C 236.719 118.920,236.902 118.750,237.126 118.750 C 237.351 118.750,238.008 118.311,238.587 117.773 C 239.167 117.236,239.950 116.797,240.328 116.797 C 240.706 116.797,241.016 116.609,241.016 116.380 C 241.016 116.128,241.363 116.070,241.895 116.233 C 243.472 116.718,242.453 116.160,238.364 114.300 C 236.153 113.295,234.191 112.568,234.003 112.684 C 233.814 112.800,233.602 112.740,233.529 112.551 C 233.457 112.360,233.138 112.352,232.813 112.535 M232.617 113.672 C 232.757 113.899,232.399 114.051,231.761 114.035 C 230.714 114.009,230.832 113.849,232.301 113.309 C 232.342 113.294,232.484 113.457,232.617 113.672 M170.573 114.648 C 170.573 114.952,170.426 115.109,170.247 114.999 C 170.068 114.888,169.922 114.994,169.922 115.234 C 169.922 115.475,169.762 115.572,169.566 115.451 C 169.285 115.277,169.254 114.488,169.501 113.782 C 169.621 113.441,170.573 114.211,170.573 114.648 M190.234 115.987 C 190.234 116.446,189.981 116.797,189.648 116.797 C 189.326 116.797,189.063 116.973,189.063 117.188 C 189.063 117.402,189.209 117.578,189.388 117.578 C 189.567 117.578,189.714 117.842,189.714 118.164 C 189.714 118.486,189.479 118.750,189.193 118.750 C 188.535 118.750,188.512 119.397,189.160 119.679 C 189.429 119.795,189.165 119.791,188.574 119.669 C 187.889 119.527,187.500 119.612,187.500 119.903 C 187.500 120.153,187.676 120.250,187.891 120.117 C 188.105 119.984,188.295 120.018,188.311 120.192 C 188.328 120.366,188.394 120.776,188.459 121.105 C 188.609 121.864,187.058 121.845,186.061 121.075 C 185.671 120.774,186.230 121.446,187.305 122.568 C 189.129 124.474,190.127 125.306,189.091 124.058 C 188.773 123.675,188.761 123.429,189.050 123.250 C 189.279 123.109,189.365 122.829,189.241 122.629 C 189.118 122.429,189.279 122.266,189.599 122.266 C 189.920 122.266,190.287 121.935,190.415 121.531 C 190.543 121.127,191.149 120.696,191.761 120.574 C 192.374 120.451,193.191 120.035,193.577 119.648 C 193.964 119.262,194.351 119.004,194.438 119.076 C 194.525 119.147,194.670 119.103,194.759 118.978 C 194.849 118.853,194.815 118.827,194.685 118.921 C 194.555 119.016,193.739 118.269,192.871 117.261 C 191.089 115.191,190.234 114.778,190.234 115.987 M332.126 116.087 C 331.841 117.177,331.325 117.308,331.389 116.273 C 331.420 115.774,331.641 115.365,331.880 115.365 C 332.119 115.365,332.230 115.690,332.126 116.087 M208.280 115.889 C 208.380 116.220,205.999 118.734,205.616 118.702 C 205.499 118.693,205.330 118.758,205.241 118.848 C 205.151 118.937,205.298 119.032,205.566 119.057 C 205.835 119.083,206.716 119.215,207.524 119.350 L 208.993 119.596 208.925 117.789 C 208.887 116.796,208.705 115.889,208.520 115.775 C 208.335 115.660,208.227 115.712,208.280 115.889 M133.070 117.695 C 132.233 117.957,131.715 118.315,131.898 118.506 C 132.085 118.699,131.804 118.731,131.250 118.578 C 130.505 118.372,130.412 118.405,130.859 118.718 C 131.182 118.944,131.270 119.137,131.055 119.147 C 130.840 119.156,130.981 119.349,131.369 119.575 C 131.962 119.920,131.993 120.085,131.565 120.614 C 131.186 121.082,131.180 121.168,131.543 120.950 C 131.812 120.789,132.031 120.831,132.031 121.044 C 132.031 121.256,132.427 121.486,132.910 121.555 C 133.394 121.624,133.770 121.855,133.747 122.070 C 133.695 122.546,135.712 123.435,136.861 123.443 C 137.543 123.448,137.588 123.519,137.109 123.828 C 136.654 124.122,136.786 124.221,137.695 124.268 C 138.731 124.322,138.685 124.362,137.305 124.609 L 135.742 124.889 137.806 124.945 C 139.994 125.003,142.271 125.773,143.472 126.859 C 143.871 127.221,144.141 127.324,144.072 127.088 C 144.002 126.852,144.416 126.126,144.990 125.475 C 145.565 124.824,145.931 124.187,145.804 124.059 C 145.677 123.932,145.895 123.828,146.289 123.828 C 146.683 123.828,146.896 123.719,146.763 123.586 C 146.630 123.453,146.733 123.108,146.991 122.819 C 148.486 121.144,148.487 121.143,147.640 120.296 C 146.668 119.324,143.436 117.875,142.933 118.186 C 142.738 118.307,142.578 118.232,142.578 118.020 C 142.578 117.787,141.734 117.722,140.437 117.856 C 139.259 117.977,138.073 117.909,137.800 117.705 C 137.076 117.161,134.792 117.156,133.070 117.695 M260.059 117.463 C 260.542 117.556,261.333 117.556,261.816 117.463 C 262.300 117.370,261.904 117.294,260.938 117.294 C 259.971 117.294,259.575 117.370,260.059 117.463 M262.695 117.578 C 262.563 117.793,261.541 117.992,260.426 118.020 C 258.782 118.062,258.628 118.117,259.611 118.313 C 260.472 118.485,260.794 118.752,260.721 119.233 C 260.638 119.780,260.758 119.837,261.338 119.526 C 262.287 119.018,262.609 119.039,262.271 119.585 C 262.075 119.903,262.394 119.955,263.390 119.769 C 265.025 119.462,265.524 119.965,264.554 120.943 C 263.965 121.537,263.958 121.602,264.503 121.395 C 264.853 121.263,265.331 121.346,265.565 121.580 C 265.871 121.887,266.060 121.824,266.240 121.354 C 266.377 120.996,266.745 120.703,267.057 120.703 C 267.369 120.703,267.523 120.539,267.399 120.339 C 267.276 120.139,267.353 119.865,267.572 119.731 C 267.790 119.596,267.983 119.803,268.000 120.192 C 268.017 120.602,268.113 120.693,268.227 120.410 C 268.452 119.855,269.531 119.739,269.531 120.271 C 269.531 120.463,269.814 120.728,270.161 120.861 C 270.593 121.027,270.725 120.933,270.582 120.560 C 270.467 120.261,270.536 119.820,270.734 119.579 C 270.977 119.282,270.954 119.255,270.660 119.496 C 269.989 120.046,267.871 119.178,268.145 118.465 C 268.299 118.061,268.186 117.952,267.778 118.108 C 267.453 118.233,267.188 118.173,267.188 117.975 C 267.188 117.777,266.265 117.689,265.137 117.779 C 263.549 117.905,263.351 117.867,264.258 117.611 L 265.430 117.280 264.183 117.234 C 263.498 117.208,262.828 117.363,262.695 117.578 M152.051 119.209 C 150.655 120.072,150.556 121.719,151.818 123.113 C 152.149 123.479,152.317 123.946,152.191 124.150 C 152.065 124.354,152.222 124.736,152.539 125.000 C 152.857 125.264,153.020 125.635,152.902 125.826 C 152.785 126.016,152.962 126.172,153.297 126.172 C 153.632 126.172,153.906 126.358,153.906 126.586 C 153.906 126.813,154.082 126.891,154.297 126.758 C 154.512 126.625,154.688 126.878,154.688 127.321 C 154.688 127.763,154.874 128.125,155.101 128.125 C 155.329 128.125,155.401 128.308,155.263 128.533 C 155.124 128.757,155.861 128.428,156.900 127.802 C 157.939 127.176,159.106 126.497,159.494 126.293 C 160.300 125.868,159.408 124.374,158.208 124.138 C 157.510 124.000,154.297 120.836,154.297 120.285 C 154.297 120.072,154.023 119.792,153.688 119.664 C 153.354 119.535,153.173 119.189,153.286 118.895 C 153.399 118.600,153.453 118.374,153.406 118.392 C 153.359 118.410,152.749 118.777,152.051 119.209 M253.780 119.361 C 252.948 119.806,252.285 120.290,252.306 120.436 C 252.327 120.583,252.344 120.944,252.344 121.239 C 252.344 121.533,252.944 122.186,253.678 122.689 C 254.831 123.479,256.489 125.910,256.342 126.596 C 256.284 126.867,259.290 125.378,260.472 124.550 C 261.294 123.974,261.294 123.972,260.514 123.304 C 260.084 122.936,259.838 122.464,259.967 122.255 C 260.097 122.046,259.884 121.848,259.496 121.816 C 259.107 121.783,258.543 121.738,258.242 121.716 C 257.190 121.639,256.647 119.141,257.682 119.141 C 258.040 119.141,258.217 119.024,258.075 118.882 C 257.525 118.332,255.223 118.589,253.780 119.361 M246.654 120.107 C 246.050 120.625,245.414 120.961,245.239 120.853 C 245.065 120.745,244.922 120.843,244.922 121.071 C 244.922 121.298,244.658 121.484,244.336 121.484 C 243.942 121.484,243.740 121.900,243.719 122.754 C 243.702 123.452,243.600 123.804,243.491 123.535 C 243.383 123.267,243.104 123.047,242.871 123.047 C 242.638 123.047,242.562 123.161,242.701 123.299 C 242.839 123.438,242.078 123.958,241.008 124.453 C 239.203 125.290,238.242 126.072,239.713 125.507 C 240.076 125.368,240.263 125.419,240.136 125.625 C 240.011 125.827,240.932 126.630,242.183 127.410 L 244.458 128.827 245.633 127.499 C 246.279 126.769,247.097 126.172,247.451 126.172 C 247.804 126.172,247.984 125.996,247.852 125.781 C 247.719 125.566,247.818 125.391,248.072 125.391 C 248.422 125.391,248.424 125.259,248.081 124.846 C 247.736 124.430,247.752 124.177,248.150 123.772 C 248.436 123.481,248.652 122.715,248.630 122.070 C 248.608 121.426,248.743 120.691,248.930 120.437 C 249.703 119.387,247.811 119.112,246.654 120.107 M198.527 120.574 C 197.842 120.849,196.733 123.047,197.279 123.047 C 197.512 123.047,197.594 123.223,197.461 123.438 C 197.320 123.665,197.759 123.847,198.512 123.874 L 199.805 123.921 198.633 124.219 L 197.461 124.517 198.698 124.563 C 199.378 124.589,200.015 124.390,200.114 124.121 C 200.254 123.740,200.403 123.736,200.792 124.103 C 201.379 124.655,202.907 124.032,202.516 123.401 C 202.384 123.187,202.464 122.786,202.694 122.510 C 203.735 121.255,200.532 119.767,198.527 120.574 M272.493 120.651 C 272.366 120.858,273.050 121.789,274.015 122.720 C 275.480 124.135,276.491 125.876,275.488 125.256 C 275.327 125.156,275.195 125.480,275.195 125.975 C 275.195 126.730,275.400 126.875,276.466 126.875 C 277.860 126.875,278.529 126.302,277.566 125.933 C 277.231 125.804,277.048 125.553,277.159 125.374 C 277.270 125.195,277.049 124.874,276.668 124.661 C 276.288 124.448,276.021 124.173,276.074 124.051 C 276.128 123.928,276.068 123.845,275.940 123.866 C 275.534 123.933,273.458 121.767,273.642 121.469 C 273.740 121.311,273.573 120.978,273.273 120.728 C 272.936 120.449,272.637 120.419,272.493 120.651 M125.128 122.363 C 124.250 123.276,123.607 124.227,123.700 124.476 C 123.793 124.725,123.657 125.060,123.398 125.220 C 123.098 125.405,123.028 125.347,123.205 125.060 C 123.358 124.812,123.393 124.609,123.282 124.609 C 123.171 124.609,122.614 125.404,122.045 126.375 C 120.910 128.311,121.181 129.386,122.728 129.088 C 123.256 128.986,123.880 129.330,124.548 130.092 C 125.107 130.729,125.799 131.250,126.087 131.250 C 126.374 131.250,126.512 131.406,126.395 131.596 C 126.277 131.787,126.442 132.160,126.762 132.425 C 127.197 132.787,127.344 132.792,127.344 132.447 C 127.344 132.193,127.520 132.094,127.734 132.227 C 128.074 132.437,128.311 131.644,128.171 130.762 C 128.146 130.601,128.257 130.469,128.418 130.469 C 128.579 130.469,128.711 130.052,128.711 129.542 C 128.711 128.961,128.529 128.685,128.223 128.802 C 127.954 128.906,127.734 129.153,127.734 129.352 C 127.734 129.553,127.375 129.522,126.928 129.284 C 126.362 128.980,125.974 128.974,125.626 129.264 C 125.264 129.564,125.130 129.523,125.130 129.113 C 125.130 128.803,125.277 128.641,125.456 128.751 C 125.635 128.862,125.781 128.678,125.781 128.343 C 125.781 128.008,125.518 127.734,125.195 127.734 C 124.873 127.734,124.596 127.515,124.580 127.246 C 124.564 126.978,124.480 126.381,124.394 125.920 C 124.182 124.794,124.962 124.227,126.878 124.116 C 128.471 124.023,128.579 123.453,127.025 123.336 C 126.257 123.278,126.243 123.225,126.832 122.574 C 127.418 121.927,127.413 121.875,126.771 121.875 C 126.198 121.875,126.161 121.773,126.563 121.289 C 127.549 120.100,126.677 120.754,125.128 122.363 M212.586 121.647 C 212.438 121.880,212.306 122.246,212.293 122.461 C 212.280 122.676,212.013 122.793,211.701 122.721 C 211.388 122.650,211.265 122.723,211.427 122.885 C 211.588 123.047,211.429 123.501,211.073 123.894 C 209.803 125.297,210.804 124.579,212.436 122.917 C 213.525 121.807,213.884 121.224,213.477 121.224 C 213.136 121.224,212.735 121.414,212.586 121.647 M126.172 121.997 C 126.172 122.064,125.601 122.636,124.902 123.267 L 123.633 124.414 124.780 123.145 C 125.850 121.961,126.172 121.695,126.172 121.997 M261.230 124.885 C 261.714 124.978,262.505 124.978,262.988 124.885 C 263.472 124.792,263.076 124.716,262.109 124.716 C 261.143 124.716,260.747 124.792,261.230 124.885 M266.964 125.375 C 266.964 125.833,267.164 126.006,267.531 125.866 C 267.915 125.718,267.998 125.808,267.790 126.144 C 267.546 126.539,267.659 126.546,268.346 126.179 C 269.232 125.705,269.216 125.392,268.298 125.253 C 268.009 125.209,267.591 125.059,267.369 124.920 C 267.145 124.780,266.964 124.984,266.964 125.375 M129.100 125.784 C 128.966 126.000,129.139 126.286,129.484 126.418 C 130.232 126.705,130.649 126.389,130.289 125.807 C 129.965 125.282,129.416 125.272,129.100 125.784 M129.996 127.004 C 129.719 127.175,129.472 127.683,129.447 128.133 C 129.404 128.899,129.474 128.883,130.521 127.880 C 131.833 126.623,131.503 126.073,129.996 127.004 M268.999 126.867 C 268.872 127.072,269.103 127.542,269.511 127.911 C 270.164 128.502,270.242 128.508,270.162 127.959 C 270.036 127.101,269.288 126.399,268.999 126.867 M198.926 128.014 C 199.517 128.104,200.483 128.104,201.074 128.014 C 201.665 127.925,201.182 127.851,200.000 127.851 C 198.818 127.851,198.335 127.925,198.926 128.014 M272.266 129.191 C 271.066 129.648,270.916 131.120,272.070 131.120 C 272.374 131.120,272.531 130.973,272.421 130.794 C 272.310 130.615,272.368 130.469,272.549 130.469 C 272.731 130.469,272.879 130.117,272.879 129.688 C 272.879 129.258,272.873 128.920,272.866 128.937 C 272.858 128.954,272.588 129.068,272.266 129.191 M63.062 143.359 C 63.062 149.268,63.116 151.685,63.183 148.730 C 63.249 145.776,63.249 140.942,63.183 137.988 C 63.116 135.034,63.062 137.451,63.062 143.359 M244.652 134.961 C 244.654 136.250,244.727 136.730,244.814 136.028 C 244.901 135.326,244.899 134.271,244.810 133.684 C 244.721 133.097,244.650 133.672,244.652 134.961 M148.067 135.352 C 148.043 137.136,147.934 137.555,147.613 137.109 C 147.263 136.622,147.231 136.644,147.424 137.239 C 147.552 137.633,147.656 138.023,147.656 138.106 C 147.656 138.189,147.909 138.160,148.218 138.041 C 148.526 137.923,148.683 137.577,148.566 137.272 C 148.448 136.963,148.588 136.716,148.884 136.713 C 149.299 136.708,149.289 136.628,148.839 136.343 C 148.350 136.034,148.370 135.939,148.969 135.709 C 149.357 135.560,149.523 135.331,149.338 135.200 C 149.153 135.068,148.799 134.521,148.551 133.984 C 148.149 133.115,148.096 133.264,148.067 135.352 M155.185 134.766 C 155.185 135.732,155.261 136.128,155.354 135.645 C 155.447 135.161,155.447 134.370,155.354 133.887 C 155.261 133.403,155.185 133.799,155.185 134.766 M279.799 134.961 C 279.802 136.035,279.878 136.428,279.968 135.834 C 280.058 135.241,280.055 134.362,279.962 133.881 C 279.870 133.401,279.796 133.887,279.799 134.961 M251.426 134.668 C 251.189 135.527,251.331 137.008,251.685 137.362 C 251.832 137.509,251.953 137.359,251.953 137.028 C 251.953 136.697,252.063 135.876,252.197 135.205 C 252.456 133.912,251.768 133.433,251.426 134.668 M127.474 139.731 C 127.504 140.860,127.635 141.033,128.378 140.936 C 128.914 140.866,129.735 141.271,130.520 141.993 C 131.503 142.897,131.419 142.728,130.154 141.254 C 129.253 140.203,128.516 139.134,128.516 138.877 C 128.516 138.621,128.273 138.411,127.977 138.411 C 127.620 138.411,127.451 138.853,127.474 139.731 M152.961 140.173 C 152.196 141.654,153.102 143.077,153.954 141.733 C 154.439 140.967,154.358 140.328,153.863 141.016 C 153.513 141.503,153.481 141.481,153.674 140.886 C 153.802 140.492,153.906 140.087,153.906 139.984 C 153.906 139.882,154.082 139.906,154.297 140.039 C 154.512 140.172,154.688 140.113,154.688 139.909 C 154.688 138.969,153.489 139.153,152.961 140.173 M198.724 140.918 C 198.949 141.503,200.633 141.571,200.981 141.009 C 201.115 140.791,201.433 140.731,201.687 140.877 C 201.941 141.022,202.021 141.000,201.866 140.829 C 201.375 140.285,198.512 140.367,198.724 140.918 M336.910 217.578 C 336.910 259.795,336.956 277.065,337.012 255.957 C 337.068 234.849,337.068 200.308,337.012 179.199 C 336.956 158.091,336.910 175.361,336.910 217.578 M202.890 147.656 C 202.890 150.771,202.950 152.046,203.024 150.488 C 203.099 148.931,203.099 146.382,203.024 144.824 C 202.950 143.267,202.890 144.541,202.890 147.656 M216.096 152.028 C 216.052 157.118,216.147 161.364,216.309 161.464 C 216.470 161.564,216.556 158.894,216.501 155.530 C 216.310 143.953,216.176 142.795,216.096 152.028 M129.362 153.149 C 128.860 153.350,128.513 153.704,128.590 153.935 C 128.734 154.367,129.317 154.479,129.271 154.066 C 129.257 153.939,129.564 153.593,129.954 153.297 C 130.776 152.674,130.635 152.639,129.362 153.149 M196.463 184.668 L 195.117 186.133 196.582 184.787 C 197.388 184.046,198.047 183.387,198.047 183.322 C 198.047 183.024,197.716 183.305,196.463 184.668 M122.852 187.500 C 123.691 188.359,124.465 189.063,124.573 189.063 C 124.680 189.063,124.081 188.359,123.242 187.500 C 122.403 186.641,121.629 185.938,121.521 185.938 C 121.414 185.938,122.012 186.641,122.852 187.500 M201.367 188.672 C 202.206 189.531,202.981 190.234,203.088 190.234 C 203.196 190.234,202.597 189.531,201.758 188.672 C 200.919 187.813,200.144 187.109,200.037 187.109 C 199.929 187.109,200.528 187.813,201.367 188.672 M109.668 190.119 C 110.151 190.213,110.942 190.213,111.426 190.119 C 111.909 190.026,111.514 189.950,110.547 189.950 C 109.580 189.950,109.185 190.026,109.668 190.119 M288.579 190.120 C 289.065 190.213,289.768 190.210,290.141 190.112 C 290.515 190.014,290.117 189.938,289.258 189.942 C 288.398 189.947,288.093 190.027,288.579 190.120 M211.702 193.457 C 212.660 194.478,213.495 195.313,213.558 195.313 C 213.851 195.313,213.541 194.962,211.816 193.343 L 209.961 191.602 211.702 193.457 M146.587 192.858 C 147.181 192.948,148.060 192.946,148.541 192.853 C 149.021 192.760,148.535 192.687,147.461 192.690 C 146.387 192.693,145.994 192.769,146.587 192.858 M243.457 192.863 C 244.263 192.947,245.581 192.947,246.387 192.863 C 247.192 192.778,246.533 192.709,244.922 192.709 C 243.311 192.709,242.651 192.778,243.457 192.863 M252.641 192.854 C 253.127 192.948,253.830 192.944,254.204 192.847 C 254.577 192.749,254.180 192.672,253.320 192.677 C 252.461 192.681,252.155 192.761,252.641 192.854 M186.719 194.727 C 185.770 195.693,185.081 196.484,185.189 196.484 C 185.296 196.484,186.161 195.693,187.109 194.727 C 188.058 193.760,188.747 192.969,188.639 192.969 C 188.532 192.969,187.668 193.760,186.719 194.727 M191.193 195.801 L 189.648 197.461 191.309 195.917 C 192.853 194.481,193.148 194.141,192.853 194.141 C 192.789 194.141,192.042 194.888,191.193 195.801 M120.419 200.000 C 120.419 200.967,120.495 201.362,120.588 200.879 C 120.681 200.396,120.681 199.604,120.588 199.121 C 120.495 198.638,120.419 199.033,120.419 200.000 M299.317 200.195 C 299.322 201.055,299.402 201.360,299.495 200.874 C 299.588 200.388,299.585 199.685,299.487 199.312 C 299.389 198.938,299.313 199.336,299.317 200.195 M146.973 199.889 C 147.563 199.979,148.530 199.979,149.121 199.889 C 149.712 199.800,149.229 199.726,148.047 199.726 C 146.865 199.726,146.382 199.800,146.973 199.889 M156.550 199.892 C 157.252 199.979,158.307 199.978,158.894 199.888 C 159.481 199.799,158.906 199.728,157.617 199.730 C 156.328 199.733,155.848 199.806,156.550 199.892 M246.208 199.899 C 247.667 199.975,249.952 199.974,251.286 199.898 C 252.620 199.822,251.426 199.760,248.633 199.761 C 245.840 199.762,244.749 199.824,246.208 199.899 M212.500 200.122 C 212.500 200.189,213.071 200.761,213.770 201.392 L 215.039 202.539 213.892 201.270 C 212.822 200.086,212.500 199.820,212.500 200.122 M209.869 203.405 C 210.462 203.495,211.341 203.493,211.822 203.400 C 212.302 203.307,211.816 203.234,210.742 203.237 C 209.668 203.240,209.275 203.316,209.869 203.405 M148.906 206.150 C 150.775 206.221,153.939 206.222,155.937 206.151 C 157.935 206.080,156.406 206.021,152.539 206.021 C 148.672 206.020,147.037 206.078,148.906 206.150 M243.828 206.150 C 245.697 206.221,248.861 206.222,250.859 206.151 C 252.857 206.080,251.328 206.021,247.461 206.021 C 243.594 206.020,241.959 206.078,243.828 206.150 M301.733 212.598 L 300.586 213.867 301.855 212.720 C 302.554 212.089,303.125 211.518,303.125 211.450 C 303.125 211.149,302.803 211.414,301.733 212.598 M330.212 300.195 C 330.213 301.914,330.282 302.569,330.365 301.650 C 330.447 300.731,330.446 299.325,330.362 298.525 C 330.278 297.725,330.211 298.477,330.212 300.195 M336.857 300.586 C 336.856 302.520,336.922 303.360,337.004 302.453 C 337.086 301.547,337.087 299.965,337.006 298.938 C 336.926 297.911,336.859 298.652,336.857 300.586 " stroke="none" fill="#83ca6f" fill-rule="evenodd"></path><path id="path3" d="M73.218 73.535 L 72.070 74.805 73.340 73.657 C 74.523 72.588,74.789 72.266,74.487 72.266 C 74.420 72.266,73.849 72.837,73.218 73.535 M69.622 97.266 C 69.622 98.018,69.702 98.325,69.801 97.949 C 69.899 97.573,69.899 96.958,69.801 96.582 C 69.702 96.206,69.622 96.514,69.622 97.266 M211.328 96.607 C 211.328 96.674,211.899 97.245,212.598 97.876 L 213.867 99.023 212.720 97.754 C 211.650 96.571,211.328 96.305,211.328 96.607 M330.270 196.875 C 330.270 252.197,330.316 274.829,330.371 247.168 C 330.426 219.507,330.426 174.243,330.371 146.582 C 330.316 118.921,330.270 141.553,330.270 196.875 M336.817 97.852 C 336.822 98.711,336.902 99.017,336.995 98.531 C 337.088 98.045,337.085 97.342,336.987 96.968 C 336.889 96.595,336.813 96.992,336.817 97.852 M336.863 137.109 C 336.863 139.365,336.928 140.288,337.007 139.160 C 337.086 138.032,337.086 136.187,337.007 135.059 C 336.928 133.931,336.863 134.854,336.863 137.109 M196.638 147.852 C 196.639 150.859,196.700 152.038,196.775 150.471 C 196.849 148.904,196.849 146.443,196.774 145.002 C 196.699 143.562,196.638 144.844,196.638 147.852 M190.005 150.195 C 190.006 154.063,190.064 155.592,190.135 153.594 C 190.206 151.595,190.206 148.431,190.134 146.562 C 190.063 144.693,190.005 146.328,190.005 150.195 M137.207 144.801 C 137.583 144.899,138.198 144.899,138.574 144.801 C 138.950 144.702,138.643 144.622,137.891 144.622 C 137.139 144.622,136.831 144.702,137.207 144.801 M209.910 153.125 C 209.910 155.381,209.975 156.304,210.054 155.176 C 210.133 154.048,210.133 152.202,210.054 151.074 C 209.975 149.946,209.910 150.869,209.910 153.125 M136.816 152.624 C 137.407 152.713,138.374 152.713,138.965 152.624 C 139.556 152.534,139.072 152.461,137.891 152.461 C 136.709 152.461,136.226 152.534,136.816 152.624 M261.230 152.619 C 261.714 152.713,262.505 152.713,262.988 152.619 C 263.472 152.526,263.076 152.450,262.109 152.450 C 261.143 152.450,260.747 152.526,261.230 152.619 M240.375 183.203 C 240.375 185.244,240.441 186.079,240.521 185.059 C 240.602 184.038,240.602 182.368,240.521 181.348 C 240.441 180.327,240.375 181.162,240.375 183.203 M159.503 183.398 C 159.505 184.902,159.576 185.470,159.660 184.659 C 159.745 183.849,159.743 182.618,159.657 181.925 C 159.571 181.231,159.501 181.895,159.503 183.398 M204.297 186.045 C 204.297 186.104,205.659 187.466,207.324 189.072 L 210.352 191.992 207.432 188.965 C 204.720 186.153,204.297 185.759,204.297 186.045 M149.316 186.619 C 151.196 186.691,154.272 186.691,156.152 186.619 C 158.032 186.547,156.494 186.489,152.734 186.489 C 148.975 186.489,147.437 186.547,149.316 186.619 M244.257 186.619 C 246.148 186.691,249.136 186.691,250.898 186.618 C 252.660 186.546,251.113 186.488,247.461 186.488 C 243.809 186.488,242.367 186.547,244.257 186.619 M189.823 191.699 L 188.477 193.164 189.941 191.818 C 190.747 191.078,191.406 190.418,191.406 190.353 C 191.406 190.055,191.076 190.336,189.823 191.699 M205.078 192.383 C 206.245 193.564,207.288 194.531,207.395 194.531 C 207.503 194.531,206.636 193.564,205.469 192.383 C 204.302 191.201,203.259 190.234,203.152 190.234 C 203.044 190.234,203.911 191.201,205.078 192.383 M159.511 196.484 C 159.511 198.311,159.579 199.058,159.661 198.145 C 159.743 197.231,159.743 195.737,159.661 194.824 C 159.579 193.911,159.511 194.658,159.511 196.484 M188.068 198.926 L 186.523 200.586 188.184 199.042 C 189.728 197.606,190.023 197.266,189.728 197.266 C 189.664 197.266,188.917 198.013,188.068 198.926 M271.601 200.000 C 271.601 201.182,271.675 201.665,271.764 201.074 C 271.854 200.483,271.854 199.517,271.764 198.926 C 271.675 198.335,271.601 198.818,271.601 200.000 M128.231 200.000 C 128.231 200.967,128.308 201.362,128.401 200.879 C 128.494 200.396,128.494 199.604,128.401 199.121 C 128.308 198.638,128.231 199.033,128.231 200.000 M151.270 199.894 C 152.075 199.978,153.394 199.978,154.199 199.894 C 155.005 199.810,154.346 199.741,152.734 199.741 C 151.123 199.741,150.464 199.810,151.270 199.894 M241.309 199.885 C 241.792 199.978,242.583 199.978,243.066 199.885 C 243.550 199.792,243.154 199.716,242.188 199.716 C 241.221 199.716,240.825 199.792,241.309 199.885 M215.002 202.674 C 215.192 202.981,214.807 203.145,213.793 203.188 L 212.305 203.250 213.624 203.411 C 215.046 203.585,216.032 203.032,215.208 202.523 C 214.895 202.330,214.822 202.383,215.002 202.674 M186.612 203.407 C 187.306 203.493,188.536 203.495,189.347 203.410 C 190.157 203.326,189.590 203.255,188.086 203.253 C 186.582 203.251,185.919 203.321,186.612 203.407 M207.977 212.695 C 207.976 216.992,208.033 218.803,208.103 216.720 C 208.174 214.637,208.174 211.121,208.104 208.907 C 208.034 206.694,207.977 208.398,207.977 212.695 M159.511 209.375 C 159.511 211.201,159.579 211.948,159.661 211.035 C 159.743 210.122,159.743 208.628,159.661 207.715 C 159.579 206.802,159.511 207.549,159.511 209.375 M183.306 206.921 C 183.900 207.011,184.779 207.008,185.259 206.916 C 185.740 206.823,185.254 206.749,184.180 206.752 C 183.105 206.755,182.712 206.831,183.306 206.921 M211.892 207.143 C 211.786 207.419,211.752 210.715,211.817 214.467 L 211.934 221.289 212.022 214.180 L 212.109 207.070 214.355 206.929 L 216.602 206.788 214.343 206.714 C 212.807 206.664,212.023 206.801,211.892 207.143 M109.863 210.035 C 110.239 210.133,110.854 210.133,111.230 210.035 C 111.606 209.937,111.299 209.856,110.547 209.856 C 109.795 209.856,109.487 209.937,109.863 210.035 M288.770 210.035 C 289.146 210.133,289.761 210.133,290.137 210.035 C 290.513 209.937,290.205 209.856,289.453 209.856 C 288.701 209.856,288.394 209.937,288.770 210.035 M152.067 219.431 C 153.526 219.506,155.811 219.505,157.145 219.429 C 158.479 219.353,157.285 219.292,154.492 219.292 C 151.699 219.293,150.608 219.355,152.067 219.431 M200.688 220.979 C 201.174 221.073,201.877 221.069,202.251 220.972 C 202.624 220.874,202.227 220.797,201.367 220.802 C 200.508 220.806,200.202 220.886,200.688 220.979 M197.949 224.507 C 199.077 224.586,200.923 224.586,202.051 224.507 C 203.179 224.428,202.256 224.363,200.000 224.363 C 197.744 224.363,196.821 224.428,197.949 224.507 M206.738 224.499 C 207.329 224.588,208.296 224.588,208.887 224.499 C 209.478 224.409,208.994 224.336,207.813 224.336 C 206.631 224.336,206.147 224.409,206.738 224.499 M69.693 248.633 C 69.693 252.500,69.752 254.029,69.823 252.031 C 69.894 250.033,69.893 246.869,69.822 245.000 C 69.750 243.131,69.692 244.766,69.693 248.633 M209.927 249.805 C 209.927 253.672,209.986 255.201,210.057 253.203 C 210.128 251.205,210.128 248.041,210.056 246.172 C 209.985 244.303,209.927 245.938,209.927 249.805 M196.638 252.148 C 196.639 255.156,196.700 256.335,196.775 254.768 C 196.849 253.201,196.849 250.740,196.774 249.299 C 196.699 247.859,196.638 249.141,196.638 252.148 M137.012 247.541 C 137.495 247.634,138.286 247.634,138.770 247.541 C 139.253 247.448,138.857 247.372,137.891 247.372 C 136.924 247.372,136.528 247.448,137.012 247.541 M189.965 254.102 C 189.967 255.391,190.040 255.871,190.127 255.169 C 190.214 254.467,190.212 253.412,190.123 252.825 C 190.034 252.238,189.963 252.813,189.965 254.102 M271.974 265.430 C 271.978 266.289,272.058 266.595,272.151 266.109 C 272.245 265.623,272.241 264.920,272.143 264.546 C 272.046 264.173,271.969 264.570,271.974 265.430 M69.707 289.453 C 69.707 297.080,69.760 300.200,69.824 296.387 C 69.888 292.573,69.888 286.333,69.824 282.520 C 69.760 278.706,69.707 281.826,69.707 289.453 M274.780 277.832 L 273.633 279.102 274.902 277.954 C 275.601 277.323,276.172 276.752,276.172 276.685 C 276.172 276.383,275.850 276.649,274.780 277.832 M136.621 283.088 C 137.104 283.181,137.896 283.181,138.379 283.088 C 138.862 282.995,138.467 282.919,137.500 282.919 C 136.533 282.919,136.138 282.995,136.621 283.088 M261.431 283.093 C 262.025 283.183,262.904 283.180,263.384 283.087 C 263.865 282.995,263.379 282.921,262.305 282.924 C 261.230 282.927,260.837 283.003,261.431 283.093 M302.441 330.347 C 302.817 330.446,303.433 330.446,303.809 330.347 C 304.185 330.249,303.877 330.169,303.125 330.169 C 302.373 330.169,302.065 330.249,302.441 330.347 " stroke="none" fill="#a6cfa4" fill-rule="evenodd"></path><path id="path4" d="M148.340 69.824 C 176.753 69.880,223.247 69.880,251.660 69.824 C 280.073 69.769,256.826 69.724,200.000 69.724 C 143.174 69.724,119.927 69.769,148.340 69.824 M324.219 71.216 C 324.219 71.283,324.790 71.854,325.488 72.486 L 326.758 73.633 325.611 72.363 C 324.541 71.180,324.219 70.914,324.219 71.216 M69.722 170.117 C 69.722 209.648,69.768 225.878,69.824 206.183 C 69.880 186.488,69.880 154.145,69.824 134.308 C 69.768 114.472,69.722 130.586,69.722 170.117 M62.656 117.383 C 62.657 120.605,62.717 121.872,62.791 120.197 C 62.864 118.522,62.864 115.885,62.790 114.338 C 62.716 112.790,62.656 114.160,62.656 117.383 M136.628 117.080 C 137.330 117.167,138.385 117.165,138.972 117.076 C 139.559 116.987,138.984 116.916,137.695 116.918 C 136.406 116.920,135.926 116.993,136.628 117.080 M261.431 117.077 C 262.025 117.167,262.904 117.165,263.384 117.072 C 263.865 116.979,263.379 116.906,262.305 116.909 C 261.230 116.912,260.837 116.987,261.431 117.077 M124.588 122.559 L 123.242 124.023 124.707 122.677 C 126.070 121.424,126.351 121.094,126.053 121.094 C 125.988 121.094,125.329 121.753,124.588 122.559 M212.479 122.949 L 211.133 124.414 212.598 123.068 C 213.961 121.815,214.242 121.484,213.944 121.484 C 213.879 121.484,213.219 122.144,212.479 122.949 M119.643 134.570 C 119.646 135.645,119.722 136.038,119.812 135.444 C 119.901 134.850,119.899 133.971,119.806 133.491 C 119.714 133.010,119.640 133.496,119.643 134.570 M127.841 134.766 C 127.841 135.732,127.917 136.128,128.010 135.645 C 128.103 135.161,128.103 134.370,128.010 133.887 C 127.917 133.403,127.841 133.799,127.841 134.766 M147.356 134.766 C 147.356 135.518,147.437 135.825,147.535 135.449 C 147.633 135.073,147.633 134.458,147.535 134.082 C 147.437 133.706,147.356 134.014,147.356 134.766 M271.966 134.766 C 271.966 135.518,272.046 135.825,272.144 135.449 C 272.243 135.073,272.243 134.458,272.144 134.082 C 272.046 133.706,271.966 134.014,271.966 134.766 M209.894 145.508 C 209.896 147.012,209.966 147.579,210.051 146.769 C 210.135 145.958,210.134 144.728,210.048 144.034 C 209.961 143.341,209.892 144.004,209.894 145.508 M183.371 152.344 C 183.371 157.393,183.427 159.458,183.495 156.934 C 183.563 154.409,183.563 150.278,183.495 147.754 C 183.427 145.229,183.371 147.295,183.371 152.344 M149.979 147.559 L 148.633 149.023 150.098 147.677 C 150.903 146.937,151.563 146.278,151.563 146.212 C 151.563 145.914,151.232 146.195,149.979 147.559 M216.564 154.883 C 216.565 158.320,216.625 159.674,216.697 157.892 C 216.770 156.109,216.769 153.296,216.696 151.642 C 216.623 149.987,216.564 151.445,216.564 154.883 M203.237 150.977 C 203.240 152.051,203.316 152.444,203.405 151.850 C 203.495 151.256,203.493 150.377,203.400 149.897 C 203.307 149.417,203.234 149.902,203.237 150.977 M194.718 186.816 L 191.211 190.430 194.824 186.922 C 198.180 183.665,198.615 183.203,198.332 183.203 C 198.274 183.203,196.648 184.829,194.718 186.816 M201.953 183.716 C 201.953 183.783,202.524 184.354,203.223 184.986 L 204.492 186.133 203.345 184.863 C 202.275 183.680,201.953 183.414,201.953 183.716 M193.544 193.066 L 190.820 195.898 193.652 193.175 C 196.283 190.645,196.663 190.234,196.376 190.234 C 196.317 190.234,195.042 191.509,193.544 193.066 M150.897 193.259 C 152.572 193.333,155.208 193.332,156.756 193.258 C 158.304 193.184,156.934 193.124,153.711 193.125 C 150.488 193.126,149.222 193.186,150.897 193.259 M240.373 196.289 C 240.372 198.223,240.438 199.063,240.520 198.156 C 240.602 197.250,240.603 195.668,240.522 194.641 C 240.441 193.614,240.374 194.355,240.373 196.289 M248.145 193.256 C 249.165 193.336,250.835 193.336,251.855 193.256 C 252.876 193.175,252.041 193.110,250.000 193.110 C 247.959 193.110,247.124 193.175,248.145 193.256 M207.422 194.639 C 207.422 194.698,208.784 196.060,210.449 197.666 L 213.477 200.586 210.557 197.559 C 207.845 194.747,207.422 194.353,207.422 194.639 M213.867 196.094 C 214.706 196.953,215.481 197.656,215.588 197.656 C 215.696 197.656,215.097 196.953,214.258 196.094 C 213.419 195.234,212.644 194.531,212.537 194.531 C 212.429 194.531,213.028 195.234,213.867 196.094 M184.161 197.754 L 182.617 199.414 184.277 197.870 C 185.190 197.021,185.938 196.274,185.938 196.210 C 185.938 195.914,185.597 196.210,184.161 197.754 M92.703 200.000 C 92.703 201.396,92.774 201.968,92.861 201.270 C 92.947 200.571,92.947 199.429,92.861 198.730 C 92.774 198.032,92.703 198.604,92.703 200.000 M307.152 200.195 C 307.154 201.484,307.227 201.965,307.314 201.263 C 307.401 200.560,307.399 199.506,307.310 198.919 C 307.221 198.332,307.150 198.906,307.152 200.195 M191.505 205.664 C 191.509 206.523,191.589 206.829,191.683 206.343 C 191.776 205.857,191.772 205.154,191.675 204.781 C 191.577 204.407,191.500 204.805,191.505 205.664 M153.822 206.538 C 154.957 206.618,156.715 206.617,157.728 206.537 C 158.741 206.456,157.813 206.392,155.664 206.393 C 153.516 206.394,152.687 206.459,153.822 206.538 M240.406 209.570 L 240.430 212.695 247.168 212.710 L 253.907 212.724 247.282 212.603 L 240.656 212.482 240.519 209.463 L 240.382 206.445 240.406 209.570 M188.054 214.844 C 188.054 219.033,188.112 220.747,188.182 218.652 C 188.252 216.558,188.252 213.130,188.182 211.035 C 188.112 208.940,188.054 210.654,188.054 214.844 M123.416 212.402 L 122.070 213.867 123.535 212.521 C 124.899 211.268,125.180 210.938,124.881 210.938 C 124.816 210.938,124.157 211.597,123.416 212.402 M96.484 211.450 C 96.484 211.518,97.056 212.089,97.754 212.720 L 99.023 213.867 97.876 212.598 C 96.807 211.414,96.484 211.149,96.484 211.450 M191.549 215.039 C 191.550 217.188,191.616 218.017,191.695 216.881 C 191.774 215.746,191.773 213.988,191.693 212.975 C 191.613 211.962,191.548 212.891,191.549 215.039 M146.587 212.780 C 147.181 212.870,148.060 212.868,148.541 212.775 C 149.021 212.682,148.535 212.609,147.461 212.612 C 146.387 212.615,145.994 212.691,146.587 212.780 M154.004 212.785 C 154.810 212.869,156.128 212.869,156.934 212.785 C 157.739 212.700,157.080 212.631,155.469 212.631 C 153.857 212.631,153.198 212.700,154.004 212.785 M146.582 219.420 C 147.173 219.510,148.140 219.510,148.730 219.420 C 149.321 219.331,148.838 219.258,147.656 219.258 C 146.475 219.258,145.991 219.331,146.582 219.420 M240.369 219.743 C 240.242 220.075,240.247 220.456,240.381 220.590 C 240.515 220.724,240.625 220.544,240.625 220.191 C 240.625 219.624,241.434 219.536,247.559 219.433 L 254.492 219.317 247.546 219.229 C 241.592 219.153,240.567 219.227,240.369 219.743 M205.273 220.703 L 202.539 220.956 205.153 221.025 C 206.590 221.063,207.875 220.918,208.008 220.703 C 208.141 220.488,208.195 220.344,208.129 220.381 C 208.062 220.419,206.777 220.564,205.273 220.703 M194.043 220.991 C 195.171 221.070,197.017 221.070,198.145 220.991 C 199.272 220.912,198.350 220.848,196.094 220.848 C 193.838 220.848,192.915 220.912,194.043 220.991 M192.480 224.501 C 193.179 224.588,194.321 224.588,195.020 224.501 C 195.718 224.415,195.146 224.344,193.750 224.344 C 192.354 224.344,191.782 224.415,192.480 224.501 M183.203 247.773 L 183.397 257.227 183.503 248.074 C 183.561 243.040,183.473 238.786,183.308 238.620 C 183.143 238.455,183.095 242.573,183.203 247.773 M216.572 247.461 C 216.572 251.973,216.629 253.765,216.698 251.444 C 216.767 249.122,216.767 245.431,216.697 243.240 C 216.628 241.050,216.571 242.949,216.572 247.461 M189.889 245.410 C 189.938 248.049,190.125 247.793,190.316 244.824 C 190.382 243.804,190.302 242.969,190.140 242.969 C 189.977 242.969,189.864 244.067,189.889 245.410 M203.277 251.758 C 203.277 254.551,203.340 255.642,203.415 254.183 C 203.490 252.724,203.490 250.439,203.414 249.105 C 203.338 247.771,203.276 248.965,203.277 251.758 M189.950 249.609 C 189.950 250.576,190.026 250.972,190.119 250.488 C 190.213 250.005,190.213 249.214,190.119 248.730 C 190.026 248.247,189.950 248.643,189.950 249.609 M149.219 251.685 C 149.219 251.752,149.790 252.323,150.488 252.954 L 151.758 254.102 150.611 252.832 C 149.541 251.649,149.219 251.383,149.219 251.685 M69.702 265.625 C 69.702 271.318,69.756 273.647,69.823 270.801 C 69.890 267.954,69.890 263.296,69.823 260.449 C 69.756 257.603,69.702 259.932,69.702 265.625 M127.841 265.234 C 127.841 266.201,127.917 266.597,128.010 266.113 C 128.103 265.630,128.103 264.839,128.010 264.355 C 127.917 263.872,127.841 264.268,127.841 265.234 M147.356 265.234 C 147.356 265.986,147.437 266.294,147.535 265.918 C 147.633 265.542,147.633 264.927,147.535 264.551 C 147.437 264.175,147.356 264.482,147.356 265.234 M244.231 265.234 C 244.231 265.986,244.312 266.294,244.410 265.918 C 244.508 265.542,244.508 264.927,244.410 264.551 C 244.312 264.175,244.231 264.482,244.231 265.234 M212.500 277.148 C 213.229 277.900,213.913 278.516,214.020 278.516 C 214.128 278.516,213.619 277.900,212.891 277.148 C 212.162 276.396,211.478 275.781,211.370 275.781 C 211.263 275.781,211.771 276.396,212.500 277.148 M148.176 330.371 C 176.499 330.426,222.729 330.426,250.910 330.371 C 279.091 330.316,255.918 330.271,199.414 330.271 C 142.910 330.271,119.853 330.316,148.176 330.371 M130.566 337.402 C 149.419 337.458,180.269 337.458,199.121 337.402 C 217.974 337.346,202.549 337.300,164.844 337.300 C 127.139 337.300,111.714 337.346,130.566 337.402 M244.069 337.402 C 248.219 337.465,254.898 337.465,258.912 337.402 C 262.927 337.338,259.531 337.286,251.367 337.287 C 243.203 337.287,239.919 337.339,244.069 337.402 M276.438 337.402 C 281.633 337.463,290.246 337.464,295.578 337.402 C 300.911 337.341,296.660 337.290,286.133 337.290 C 275.605 337.290,271.243 337.340,276.438 337.402 " stroke="none" fill="#cbdfcb" fill-rule="evenodd"></path></g></svg>